M48
; DRILL file {KiCad 9.0.6} date 2026-01-01T14:22:30-0700
; FORMAT={-:-/ absolute / metric / decimal}
; #@! TF.CreationDate,2026-01-01T14:22:30-07:00
; #@! TF.GenerationSoftware,Kicad,Pcbnew,9.0.6
; #@! TF.FileFunction,Plated,1,2,PTH
FMAT,2
METRIC
; #@! TA.AperFunction,Plated,PTH,ViaDrill
T1C0.300
; #@! TA.AperFunction,Plated,PTH,ComponentDrill
T2C0.800
; #@! TA.AperFunction,Plated,PTH,ComponentDrill
T3C0.900
; #@! TA.AperFunction,Plated,PTH,ComponentDrill
T4C1.300
%
G90
G05
T1
X19.117Y-13.243
X20.151Y-23.716
X21.885Y-33.986
X21.9Y-36.967
X22.743Y-42.623
X28.906Y-67.583
T2
X6.046Y-1.4
X6.046Y-3.94
X6.046Y-6.48
X6.046Y-9.02
X6.046Y-11.56
X6.046Y-14.1
X6.046Y-16.64
X6.046Y-19.18
X6.046Y-21.72
X6.046Y-24.26
X6.046Y-26.8
X6.046Y-29.34
X6.046Y-31.88
X6.046Y-34.42
X6.046Y-36.96
X7.0Y-61.88
X7.0Y-69.5
X7.0Y-85.5
X7.0Y-93.12
X7.0Y-110.5
X7.0Y-118.12
X7.0Y-135.0
X7.0Y-142.62
X17.0Y-12.38
X17.0Y-20.0
X17.0Y-36.88
X17.0Y-44.5
X28.0Y-133.5
X28.0Y-141.12
X28.906Y-1.4
X28.906Y-3.94
X28.906Y-6.48
X28.906Y-9.02
X28.906Y-11.56
X28.906Y-14.1
X28.906Y-16.64
X28.906Y-19.18
X28.906Y-21.72
X28.906Y-24.26
X28.906Y-26.8
X28.906Y-29.34
X28.906Y-31.88
X28.906Y-34.42
X28.906Y-36.96
T3
X16.0Y-5.0
X16.0Y-29.0
X16.0Y-53.0
X16.0Y-77.0
X16.0Y-101.0
X16.0Y-125.0
X16.0Y-149.0
X18.54Y-5.0
X18.54Y-29.0
X18.54Y-53.0
X18.54Y-77.0
X18.54Y-101.0
X18.54Y-125.0
X18.54Y-149.0
T4
X24.5Y-62.5
X24.5Y-67.5
M30
