%TF.GenerationSoftware,KiCad,Pcbnew,9.0.6*%
%TF.CreationDate,2026-01-01T14:22:27-07:00*%
%TF.ProjectId,board,626f6172-642e-46b6-9963-61645f706362,rev?*%
%TF.SameCoordinates,Original*%
%TF.FileFunction,Legend,Top*%
%TF.FilePolarity,Positive*%
%FSLAX46Y46*%
G04 Gerber Fmt 4.6, Leading zero omitted, Abs format (unit mm)*
G04 Created by KiCad (PCBNEW 9.0.6) date 2026-01-01 14:22:27*
%MOMM*%
%LPD*%
G01*
G04 APERTURE LIST*
%ADD10C,0.150000*%
%ADD11C,0.120000*%
G04 APERTURE END LIST*
D10*
X16891895Y1989680D02*
X16891895Y1180157D01*
X16891895Y1180157D02*
X16939514Y1084919D01*
X16939514Y1084919D02*
X16987133Y1037300D01*
X16987133Y1037300D02*
X17082371Y989680D01*
X17082371Y989680D02*
X17272847Y989680D01*
X17272847Y989680D02*
X17368085Y1037300D01*
X17368085Y1037300D02*
X17415704Y1084919D01*
X17415704Y1084919D02*
X17463323Y1180157D01*
X17463323Y1180157D02*
X17463323Y1989680D01*
X18463323Y989680D02*
X17891895Y989680D01*
X18177609Y989680D02*
X18177609Y1989680D01*
X18177609Y1989680D02*
X18082371Y1846823D01*
X18082371Y1846823D02*
X17987133Y1751585D01*
X17987133Y1751585D02*
X17891895Y1703966D01*
X8888857Y-39364309D02*
X9222190Y-39364309D01*
X9365047Y-39888119D02*
X8888857Y-39888119D01*
X8888857Y-39888119D02*
X8888857Y-38888119D01*
X8888857Y-38888119D02*
X9365047Y-38888119D01*
X9746000Y-39840500D02*
X9888857Y-39888119D01*
X9888857Y-39888119D02*
X10126952Y-39888119D01*
X10126952Y-39888119D02*
X10222190Y-39840500D01*
X10222190Y-39840500D02*
X10269809Y-39792880D01*
X10269809Y-39792880D02*
X10317428Y-39697642D01*
X10317428Y-39697642D02*
X10317428Y-39602404D01*
X10317428Y-39602404D02*
X10269809Y-39507166D01*
X10269809Y-39507166D02*
X10222190Y-39459547D01*
X10222190Y-39459547D02*
X10126952Y-39411928D01*
X10126952Y-39411928D02*
X9936476Y-39364309D01*
X9936476Y-39364309D02*
X9841238Y-39316690D01*
X9841238Y-39316690D02*
X9793619Y-39269071D01*
X9793619Y-39269071D02*
X9746000Y-39173833D01*
X9746000Y-39173833D02*
X9746000Y-39078595D01*
X9746000Y-39078595D02*
X9793619Y-38983357D01*
X9793619Y-38983357D02*
X9841238Y-38935738D01*
X9841238Y-38935738D02*
X9936476Y-38888119D01*
X9936476Y-38888119D02*
X10174571Y-38888119D01*
X10174571Y-38888119D02*
X10317428Y-38935738D01*
X10746000Y-39888119D02*
X10746000Y-38888119D01*
X10746000Y-38888119D02*
X11126952Y-38888119D01*
X11126952Y-38888119D02*
X11222190Y-38935738D01*
X11222190Y-38935738D02*
X11269809Y-38983357D01*
X11269809Y-38983357D02*
X11317428Y-39078595D01*
X11317428Y-39078595D02*
X11317428Y-39221452D01*
X11317428Y-39221452D02*
X11269809Y-39316690D01*
X11269809Y-39316690D02*
X11222190Y-39364309D01*
X11222190Y-39364309D02*
X11126952Y-39411928D01*
X11126952Y-39411928D02*
X10746000Y-39411928D01*
X11650762Y-38888119D02*
X12269809Y-38888119D01*
X12269809Y-38888119D02*
X11936476Y-39269071D01*
X11936476Y-39269071D02*
X12079333Y-39269071D01*
X12079333Y-39269071D02*
X12174571Y-39316690D01*
X12174571Y-39316690D02*
X12222190Y-39364309D01*
X12222190Y-39364309D02*
X12269809Y-39459547D01*
X12269809Y-39459547D02*
X12269809Y-39697642D01*
X12269809Y-39697642D02*
X12222190Y-39792880D01*
X12222190Y-39792880D02*
X12174571Y-39840500D01*
X12174571Y-39840500D02*
X12079333Y-39888119D01*
X12079333Y-39888119D02*
X11793619Y-39888119D01*
X11793619Y-39888119D02*
X11698381Y-39840500D01*
X11698381Y-39840500D02*
X11650762Y-39792880D01*
X12650762Y-38983357D02*
X12698381Y-38935738D01*
X12698381Y-38935738D02*
X12793619Y-38888119D01*
X12793619Y-38888119D02*
X13031714Y-38888119D01*
X13031714Y-38888119D02*
X13126952Y-38935738D01*
X13126952Y-38935738D02*
X13174571Y-38983357D01*
X13174571Y-38983357D02*
X13222190Y-39078595D01*
X13222190Y-39078595D02*
X13222190Y-39173833D01*
X13222190Y-39173833D02*
X13174571Y-39316690D01*
X13174571Y-39316690D02*
X12603143Y-39888119D01*
X12603143Y-39888119D02*
X13222190Y-39888119D01*
X13650762Y-39507166D02*
X14412667Y-39507166D01*
X15460285Y-39792880D02*
X15412666Y-39840500D01*
X15412666Y-39840500D02*
X15269809Y-39888119D01*
X15269809Y-39888119D02*
X15174571Y-39888119D01*
X15174571Y-39888119D02*
X15031714Y-39840500D01*
X15031714Y-39840500D02*
X14936476Y-39745261D01*
X14936476Y-39745261D02*
X14888857Y-39650023D01*
X14888857Y-39650023D02*
X14841238Y-39459547D01*
X14841238Y-39459547D02*
X14841238Y-39316690D01*
X14841238Y-39316690D02*
X14888857Y-39126214D01*
X14888857Y-39126214D02*
X14936476Y-39030976D01*
X14936476Y-39030976D02*
X15031714Y-38935738D01*
X15031714Y-38935738D02*
X15174571Y-38888119D01*
X15174571Y-38888119D02*
X15269809Y-38888119D01*
X15269809Y-38888119D02*
X15412666Y-38935738D01*
X15412666Y-38935738D02*
X15460285Y-38983357D01*
X16317428Y-38888119D02*
X16126952Y-38888119D01*
X16126952Y-38888119D02*
X16031714Y-38935738D01*
X16031714Y-38935738D02*
X15984095Y-38983357D01*
X15984095Y-38983357D02*
X15888857Y-39126214D01*
X15888857Y-39126214D02*
X15841238Y-39316690D01*
X15841238Y-39316690D02*
X15841238Y-39697642D01*
X15841238Y-39697642D02*
X15888857Y-39792880D01*
X15888857Y-39792880D02*
X15936476Y-39840500D01*
X15936476Y-39840500D02*
X16031714Y-39888119D01*
X16031714Y-39888119D02*
X16222190Y-39888119D01*
X16222190Y-39888119D02*
X16317428Y-39840500D01*
X16317428Y-39840500D02*
X16365047Y-39792880D01*
X16365047Y-39792880D02*
X16412666Y-39697642D01*
X16412666Y-39697642D02*
X16412666Y-39459547D01*
X16412666Y-39459547D02*
X16365047Y-39364309D01*
X16365047Y-39364309D02*
X16317428Y-39316690D01*
X16317428Y-39316690D02*
X16222190Y-39269071D01*
X16222190Y-39269071D02*
X16031714Y-39269071D01*
X16031714Y-39269071D02*
X15936476Y-39316690D01*
X15936476Y-39316690D02*
X15888857Y-39364309D01*
X15888857Y-39364309D02*
X15841238Y-39459547D01*
X16841238Y-39507166D02*
X17603143Y-39507166D01*
X18079333Y-39888119D02*
X18079333Y-38888119D01*
X18079333Y-38888119D02*
X18317428Y-38888119D01*
X18317428Y-38888119D02*
X18460285Y-38935738D01*
X18460285Y-38935738D02*
X18555523Y-39030976D01*
X18555523Y-39030976D02*
X18603142Y-39126214D01*
X18603142Y-39126214D02*
X18650761Y-39316690D01*
X18650761Y-39316690D02*
X18650761Y-39459547D01*
X18650761Y-39459547D02*
X18603142Y-39650023D01*
X18603142Y-39650023D02*
X18555523Y-39745261D01*
X18555523Y-39745261D02*
X18460285Y-39840500D01*
X18460285Y-39840500D02*
X18317428Y-39888119D01*
X18317428Y-39888119D02*
X18079333Y-39888119D01*
X19460285Y-39840500D02*
X19365047Y-39888119D01*
X19365047Y-39888119D02*
X19174571Y-39888119D01*
X19174571Y-39888119D02*
X19079333Y-39840500D01*
X19079333Y-39840500D02*
X19031714Y-39745261D01*
X19031714Y-39745261D02*
X19031714Y-39364309D01*
X19031714Y-39364309D02*
X19079333Y-39269071D01*
X19079333Y-39269071D02*
X19174571Y-39221452D01*
X19174571Y-39221452D02*
X19365047Y-39221452D01*
X19365047Y-39221452D02*
X19460285Y-39269071D01*
X19460285Y-39269071D02*
X19507904Y-39364309D01*
X19507904Y-39364309D02*
X19507904Y-39459547D01*
X19507904Y-39459547D02*
X19031714Y-39554785D01*
X19841238Y-39221452D02*
X20079333Y-39888119D01*
X20079333Y-39888119D02*
X20317428Y-39221452D01*
X20698381Y-39888119D02*
X20698381Y-38888119D01*
X21269809Y-39888119D02*
X20841238Y-39316690D01*
X21269809Y-38888119D02*
X20698381Y-39459547D01*
X21698381Y-39888119D02*
X21698381Y-39221452D01*
X21698381Y-38888119D02*
X21650762Y-38935738D01*
X21650762Y-38935738D02*
X21698381Y-38983357D01*
X21698381Y-38983357D02*
X21746000Y-38935738D01*
X21746000Y-38935738D02*
X21698381Y-38888119D01*
X21698381Y-38888119D02*
X21698381Y-38983357D01*
X22031714Y-39221452D02*
X22412666Y-39221452D01*
X22174571Y-38888119D02*
X22174571Y-39745261D01*
X22174571Y-39745261D02*
X22222190Y-39840500D01*
X22222190Y-39840500D02*
X22317428Y-39888119D01*
X22317428Y-39888119D02*
X22412666Y-39888119D01*
X22746000Y-39888119D02*
X22746000Y-38888119D01*
X22746000Y-38888119D02*
X23079333Y-39602404D01*
X23079333Y-39602404D02*
X23412666Y-38888119D01*
X23412666Y-38888119D02*
X23412666Y-39888119D01*
X23888857Y-39507166D02*
X24650762Y-39507166D01*
X25650761Y-39888119D02*
X25079333Y-39888119D01*
X25365047Y-39888119D02*
X25365047Y-38888119D01*
X25365047Y-38888119D02*
X25269809Y-39030976D01*
X25269809Y-39030976D02*
X25174571Y-39126214D01*
X25174571Y-39126214D02*
X25079333Y-39173833D01*
X8770562Y-44259919D02*
X8770562Y-45069442D01*
X8770562Y-45069442D02*
X8818181Y-45164680D01*
X8818181Y-45164680D02*
X8865800Y-45212300D01*
X8865800Y-45212300D02*
X8961038Y-45259919D01*
X8961038Y-45259919D02*
X9151514Y-45259919D01*
X9151514Y-45259919D02*
X9246752Y-45212300D01*
X9246752Y-45212300D02*
X9294371Y-45164680D01*
X9294371Y-45164680D02*
X9341990Y-45069442D01*
X9341990Y-45069442D02*
X9341990Y-44259919D01*
X9770562Y-44974204D02*
X10246752Y-44974204D01*
X9675324Y-45259919D02*
X10008657Y-44259919D01*
X10008657Y-44259919D02*
X10341990Y-45259919D01*
X11246752Y-45259919D02*
X10913419Y-44783728D01*
X10675324Y-45259919D02*
X10675324Y-44259919D01*
X10675324Y-44259919D02*
X11056276Y-44259919D01*
X11056276Y-44259919D02*
X11151514Y-44307538D01*
X11151514Y-44307538D02*
X11199133Y-44355157D01*
X11199133Y-44355157D02*
X11246752Y-44450395D01*
X11246752Y-44450395D02*
X11246752Y-44593252D01*
X11246752Y-44593252D02*
X11199133Y-44688490D01*
X11199133Y-44688490D02*
X11151514Y-44736109D01*
X11151514Y-44736109D02*
X11056276Y-44783728D01*
X11056276Y-44783728D02*
X10675324Y-44783728D01*
X11532467Y-44259919D02*
X12103895Y-44259919D01*
X11818181Y-45259919D02*
X11818181Y-44259919D01*
X16156363Y-5982738D02*
X16061125Y-5935119D01*
X16061125Y-5935119D02*
X15918268Y-5935119D01*
X15918268Y-5935119D02*
X15775411Y-5982738D01*
X15775411Y-5982738D02*
X15680173Y-6077976D01*
X15680173Y-6077976D02*
X15632554Y-6173214D01*
X15632554Y-6173214D02*
X15584935Y-6363690D01*
X15584935Y-6363690D02*
X15584935Y-6506547D01*
X15584935Y-6506547D02*
X15632554Y-6697023D01*
X15632554Y-6697023D02*
X15680173Y-6792261D01*
X15680173Y-6792261D02*
X15775411Y-6887500D01*
X15775411Y-6887500D02*
X15918268Y-6935119D01*
X15918268Y-6935119D02*
X16013506Y-6935119D01*
X16013506Y-6935119D02*
X16156363Y-6887500D01*
X16156363Y-6887500D02*
X16203982Y-6839880D01*
X16203982Y-6839880D02*
X16203982Y-6506547D01*
X16203982Y-6506547D02*
X16013506Y-6506547D01*
X16632554Y-6935119D02*
X16632554Y-5935119D01*
X16632554Y-5935119D02*
X17013506Y-5935119D01*
X17013506Y-5935119D02*
X17108744Y-5982738D01*
X17108744Y-5982738D02*
X17156363Y-6030357D01*
X17156363Y-6030357D02*
X17203982Y-6125595D01*
X17203982Y-6125595D02*
X17203982Y-6268452D01*
X17203982Y-6268452D02*
X17156363Y-6363690D01*
X17156363Y-6363690D02*
X17108744Y-6411309D01*
X17108744Y-6411309D02*
X17013506Y-6458928D01*
X17013506Y-6458928D02*
X16632554Y-6458928D01*
X17632554Y-6935119D02*
X17632554Y-5935119D01*
X18299220Y-5935119D02*
X18489696Y-5935119D01*
X18489696Y-5935119D02*
X18584934Y-5982738D01*
X18584934Y-5982738D02*
X18680172Y-6077976D01*
X18680172Y-6077976D02*
X18727791Y-6268452D01*
X18727791Y-6268452D02*
X18727791Y-6601785D01*
X18727791Y-6601785D02*
X18680172Y-6792261D01*
X18680172Y-6792261D02*
X18584934Y-6887500D01*
X18584934Y-6887500D02*
X18489696Y-6935119D01*
X18489696Y-6935119D02*
X18299220Y-6935119D01*
X18299220Y-6935119D02*
X18203982Y-6887500D01*
X18203982Y-6887500D02*
X18108744Y-6792261D01*
X18108744Y-6792261D02*
X18061125Y-6601785D01*
X18061125Y-6601785D02*
X18061125Y-6268452D01*
X18061125Y-6268452D02*
X18108744Y-6077976D01*
X18108744Y-6077976D02*
X18203982Y-5982738D01*
X18203982Y-5982738D02*
X18299220Y-5935119D01*
X19680172Y-6935119D02*
X19108744Y-6935119D01*
X19394458Y-6935119D02*
X19394458Y-5935119D01*
X19394458Y-5935119D02*
X19299220Y-6077976D01*
X19299220Y-6077976D02*
X19203982Y-6173214D01*
X19203982Y-6173214D02*
X19108744Y-6220833D01*
X20013506Y-5935119D02*
X20680172Y-5935119D01*
X20680172Y-5935119D02*
X20251601Y-6935119D01*
X20918268Y-6554166D02*
X20965887Y-6506547D01*
X20965887Y-6506547D02*
X21061125Y-6458928D01*
X21061125Y-6458928D02*
X21251601Y-6554166D01*
X21251601Y-6554166D02*
X21346839Y-6506547D01*
X21346839Y-6506547D02*
X21394458Y-6458928D01*
X22489696Y-5887500D02*
X21632554Y-7173214D01*
X22823030Y-5935119D02*
X22823030Y-6744642D01*
X22823030Y-6744642D02*
X22870649Y-6839880D01*
X22870649Y-6839880D02*
X22918268Y-6887500D01*
X22918268Y-6887500D02*
X23013506Y-6935119D01*
X23013506Y-6935119D02*
X23203982Y-6935119D01*
X23203982Y-6935119D02*
X23299220Y-6887500D01*
X23299220Y-6887500D02*
X23346839Y-6839880D01*
X23346839Y-6839880D02*
X23394458Y-6744642D01*
X23394458Y-6744642D02*
X23394458Y-5935119D01*
X24061125Y-5935119D02*
X24156363Y-5935119D01*
X24156363Y-5935119D02*
X24251601Y-5982738D01*
X24251601Y-5982738D02*
X24299220Y-6030357D01*
X24299220Y-6030357D02*
X24346839Y-6125595D01*
X24346839Y-6125595D02*
X24394458Y-6316071D01*
X24394458Y-6316071D02*
X24394458Y-6554166D01*
X24394458Y-6554166D02*
X24346839Y-6744642D01*
X24346839Y-6744642D02*
X24299220Y-6839880D01*
X24299220Y-6839880D02*
X24251601Y-6887500D01*
X24251601Y-6887500D02*
X24156363Y-6935119D01*
X24156363Y-6935119D02*
X24061125Y-6935119D01*
X24061125Y-6935119D02*
X23965887Y-6887500D01*
X23965887Y-6887500D02*
X23918268Y-6839880D01*
X23918268Y-6839880D02*
X23870649Y-6744642D01*
X23870649Y-6744642D02*
X23823030Y-6554166D01*
X23823030Y-6554166D02*
X23823030Y-6316071D01*
X23823030Y-6316071D02*
X23870649Y-6125595D01*
X23870649Y-6125595D02*
X23918268Y-6030357D01*
X23918268Y-6030357D02*
X23965887Y-5982738D01*
X23965887Y-5982738D02*
X24061125Y-5935119D01*
X25394458Y-6935119D02*
X25061125Y-6458928D01*
X24823030Y-6935119D02*
X24823030Y-5935119D01*
X24823030Y-5935119D02*
X25203982Y-5935119D01*
X25203982Y-5935119D02*
X25299220Y-5982738D01*
X25299220Y-5982738D02*
X25346839Y-6030357D01*
X25346839Y-6030357D02*
X25394458Y-6125595D01*
X25394458Y-6125595D02*
X25394458Y-6268452D01*
X25394458Y-6268452D02*
X25346839Y-6363690D01*
X25346839Y-6363690D02*
X25299220Y-6411309D01*
X25299220Y-6411309D02*
X25203982Y-6458928D01*
X25203982Y-6458928D02*
X24823030Y-6458928D01*
X25727792Y-5935119D02*
X26394458Y-6935119D01*
X26394458Y-5935119D02*
X25727792Y-6935119D01*
X26775411Y-6935119D02*
X26775411Y-5935119D01*
X26775411Y-5935119D02*
X27013506Y-5935119D01*
X27013506Y-5935119D02*
X27156363Y-5982738D01*
X27156363Y-5982738D02*
X27251601Y-6077976D01*
X27251601Y-6077976D02*
X27299220Y-6173214D01*
X27299220Y-6173214D02*
X27346839Y-6363690D01*
X27346839Y-6363690D02*
X27346839Y-6506547D01*
X27346839Y-6506547D02*
X27299220Y-6697023D01*
X27299220Y-6697023D02*
X27251601Y-6792261D01*
X27251601Y-6792261D02*
X27156363Y-6887500D01*
X27156363Y-6887500D02*
X27013506Y-6935119D01*
X27013506Y-6935119D02*
X26775411Y-6935119D01*
X22870649Y-16142738D02*
X22775411Y-16095119D01*
X22775411Y-16095119D02*
X22632554Y-16095119D01*
X22632554Y-16095119D02*
X22489697Y-16142738D01*
X22489697Y-16142738D02*
X22394459Y-16237976D01*
X22394459Y-16237976D02*
X22346840Y-16333214D01*
X22346840Y-16333214D02*
X22299221Y-16523690D01*
X22299221Y-16523690D02*
X22299221Y-16666547D01*
X22299221Y-16666547D02*
X22346840Y-16857023D01*
X22346840Y-16857023D02*
X22394459Y-16952261D01*
X22394459Y-16952261D02*
X22489697Y-17047500D01*
X22489697Y-17047500D02*
X22632554Y-17095119D01*
X22632554Y-17095119D02*
X22727792Y-17095119D01*
X22727792Y-17095119D02*
X22870649Y-17047500D01*
X22870649Y-17047500D02*
X22918268Y-16999880D01*
X22918268Y-16999880D02*
X22918268Y-16666547D01*
X22918268Y-16666547D02*
X22727792Y-16666547D01*
X23346840Y-17095119D02*
X23346840Y-16095119D01*
X23346840Y-16095119D02*
X23727792Y-16095119D01*
X23727792Y-16095119D02*
X23823030Y-16142738D01*
X23823030Y-16142738D02*
X23870649Y-16190357D01*
X23870649Y-16190357D02*
X23918268Y-16285595D01*
X23918268Y-16285595D02*
X23918268Y-16428452D01*
X23918268Y-16428452D02*
X23870649Y-16523690D01*
X23870649Y-16523690D02*
X23823030Y-16571309D01*
X23823030Y-16571309D02*
X23727792Y-16618928D01*
X23727792Y-16618928D02*
X23346840Y-16618928D01*
X24346840Y-17095119D02*
X24346840Y-16095119D01*
X25013506Y-16095119D02*
X25203982Y-16095119D01*
X25203982Y-16095119D02*
X25299220Y-16142738D01*
X25299220Y-16142738D02*
X25394458Y-16237976D01*
X25394458Y-16237976D02*
X25442077Y-16428452D01*
X25442077Y-16428452D02*
X25442077Y-16761785D01*
X25442077Y-16761785D02*
X25394458Y-16952261D01*
X25394458Y-16952261D02*
X25299220Y-17047500D01*
X25299220Y-17047500D02*
X25203982Y-17095119D01*
X25203982Y-17095119D02*
X25013506Y-17095119D01*
X25013506Y-17095119D02*
X24918268Y-17047500D01*
X24918268Y-17047500D02*
X24823030Y-16952261D01*
X24823030Y-16952261D02*
X24775411Y-16761785D01*
X24775411Y-16761785D02*
X24775411Y-16428452D01*
X24775411Y-16428452D02*
X24823030Y-16237976D01*
X24823030Y-16237976D02*
X24918268Y-16142738D01*
X24918268Y-16142738D02*
X25013506Y-16095119D01*
X25823030Y-16190357D02*
X25870649Y-16142738D01*
X25870649Y-16142738D02*
X25965887Y-16095119D01*
X25965887Y-16095119D02*
X26203982Y-16095119D01*
X26203982Y-16095119D02*
X26299220Y-16142738D01*
X26299220Y-16142738D02*
X26346839Y-16190357D01*
X26346839Y-16190357D02*
X26394458Y-16285595D01*
X26394458Y-16285595D02*
X26394458Y-16380833D01*
X26394458Y-16380833D02*
X26346839Y-16523690D01*
X26346839Y-16523690D02*
X25775411Y-17095119D01*
X25775411Y-17095119D02*
X26394458Y-17095119D01*
X27013506Y-16095119D02*
X27108744Y-16095119D01*
X27108744Y-16095119D02*
X27203982Y-16142738D01*
X27203982Y-16142738D02*
X27251601Y-16190357D01*
X27251601Y-16190357D02*
X27299220Y-16285595D01*
X27299220Y-16285595D02*
X27346839Y-16476071D01*
X27346839Y-16476071D02*
X27346839Y-16714166D01*
X27346839Y-16714166D02*
X27299220Y-16904642D01*
X27299220Y-16904642D02*
X27251601Y-16999880D01*
X27251601Y-16999880D02*
X27203982Y-17047500D01*
X27203982Y-17047500D02*
X27108744Y-17095119D01*
X27108744Y-17095119D02*
X27013506Y-17095119D01*
X27013506Y-17095119D02*
X26918268Y-17047500D01*
X26918268Y-17047500D02*
X26870649Y-16999880D01*
X26870649Y-16999880D02*
X26823030Y-16904642D01*
X26823030Y-16904642D02*
X26775411Y-16714166D01*
X26775411Y-16714166D02*
X26775411Y-16476071D01*
X26775411Y-16476071D02*
X26823030Y-16285595D01*
X26823030Y-16285595D02*
X26870649Y-16190357D01*
X26870649Y-16190357D02*
X26918268Y-16142738D01*
X26918268Y-16142738D02*
X27013506Y-16095119D01*
X22870649Y-13602738D02*
X22775411Y-13555119D01*
X22775411Y-13555119D02*
X22632554Y-13555119D01*
X22632554Y-13555119D02*
X22489697Y-13602738D01*
X22489697Y-13602738D02*
X22394459Y-13697976D01*
X22394459Y-13697976D02*
X22346840Y-13793214D01*
X22346840Y-13793214D02*
X22299221Y-13983690D01*
X22299221Y-13983690D02*
X22299221Y-14126547D01*
X22299221Y-14126547D02*
X22346840Y-14317023D01*
X22346840Y-14317023D02*
X22394459Y-14412261D01*
X22394459Y-14412261D02*
X22489697Y-14507500D01*
X22489697Y-14507500D02*
X22632554Y-14555119D01*
X22632554Y-14555119D02*
X22727792Y-14555119D01*
X22727792Y-14555119D02*
X22870649Y-14507500D01*
X22870649Y-14507500D02*
X22918268Y-14459880D01*
X22918268Y-14459880D02*
X22918268Y-14126547D01*
X22918268Y-14126547D02*
X22727792Y-14126547D01*
X23346840Y-14555119D02*
X23346840Y-13555119D01*
X23346840Y-13555119D02*
X23727792Y-13555119D01*
X23727792Y-13555119D02*
X23823030Y-13602738D01*
X23823030Y-13602738D02*
X23870649Y-13650357D01*
X23870649Y-13650357D02*
X23918268Y-13745595D01*
X23918268Y-13745595D02*
X23918268Y-13888452D01*
X23918268Y-13888452D02*
X23870649Y-13983690D01*
X23870649Y-13983690D02*
X23823030Y-14031309D01*
X23823030Y-14031309D02*
X23727792Y-14078928D01*
X23727792Y-14078928D02*
X23346840Y-14078928D01*
X24346840Y-14555119D02*
X24346840Y-13555119D01*
X25013506Y-13555119D02*
X25203982Y-13555119D01*
X25203982Y-13555119D02*
X25299220Y-13602738D01*
X25299220Y-13602738D02*
X25394458Y-13697976D01*
X25394458Y-13697976D02*
X25442077Y-13888452D01*
X25442077Y-13888452D02*
X25442077Y-14221785D01*
X25442077Y-14221785D02*
X25394458Y-14412261D01*
X25394458Y-14412261D02*
X25299220Y-14507500D01*
X25299220Y-14507500D02*
X25203982Y-14555119D01*
X25203982Y-14555119D02*
X25013506Y-14555119D01*
X25013506Y-14555119D02*
X24918268Y-14507500D01*
X24918268Y-14507500D02*
X24823030Y-14412261D01*
X24823030Y-14412261D02*
X24775411Y-14221785D01*
X24775411Y-14221785D02*
X24775411Y-13888452D01*
X24775411Y-13888452D02*
X24823030Y-13697976D01*
X24823030Y-13697976D02*
X24918268Y-13602738D01*
X24918268Y-13602738D02*
X25013506Y-13555119D01*
X25823030Y-13650357D02*
X25870649Y-13602738D01*
X25870649Y-13602738D02*
X25965887Y-13555119D01*
X25965887Y-13555119D02*
X26203982Y-13555119D01*
X26203982Y-13555119D02*
X26299220Y-13602738D01*
X26299220Y-13602738D02*
X26346839Y-13650357D01*
X26346839Y-13650357D02*
X26394458Y-13745595D01*
X26394458Y-13745595D02*
X26394458Y-13840833D01*
X26394458Y-13840833D02*
X26346839Y-13983690D01*
X26346839Y-13983690D02*
X25775411Y-14555119D01*
X25775411Y-14555119D02*
X26394458Y-14555119D01*
X27346839Y-14555119D02*
X26775411Y-14555119D01*
X27061125Y-14555119D02*
X27061125Y-13555119D01*
X27061125Y-13555119D02*
X26965887Y-13697976D01*
X26965887Y-13697976D02*
X26870649Y-13793214D01*
X26870649Y-13793214D02*
X26775411Y-13840833D01*
X8176588Y-23762738D02*
X8081350Y-23715119D01*
X8081350Y-23715119D02*
X7938493Y-23715119D01*
X7938493Y-23715119D02*
X7795636Y-23762738D01*
X7795636Y-23762738D02*
X7700398Y-23857976D01*
X7700398Y-23857976D02*
X7652779Y-23953214D01*
X7652779Y-23953214D02*
X7605160Y-24143690D01*
X7605160Y-24143690D02*
X7605160Y-24286547D01*
X7605160Y-24286547D02*
X7652779Y-24477023D01*
X7652779Y-24477023D02*
X7700398Y-24572261D01*
X7700398Y-24572261D02*
X7795636Y-24667500D01*
X7795636Y-24667500D02*
X7938493Y-24715119D01*
X7938493Y-24715119D02*
X8033731Y-24715119D01*
X8033731Y-24715119D02*
X8176588Y-24667500D01*
X8176588Y-24667500D02*
X8224207Y-24619880D01*
X8224207Y-24619880D02*
X8224207Y-24286547D01*
X8224207Y-24286547D02*
X8033731Y-24286547D01*
X8652779Y-24715119D02*
X8652779Y-23715119D01*
X8652779Y-23715119D02*
X9033731Y-23715119D01*
X9033731Y-23715119D02*
X9128969Y-23762738D01*
X9128969Y-23762738D02*
X9176588Y-23810357D01*
X9176588Y-23810357D02*
X9224207Y-23905595D01*
X9224207Y-23905595D02*
X9224207Y-24048452D01*
X9224207Y-24048452D02*
X9176588Y-24143690D01*
X9176588Y-24143690D02*
X9128969Y-24191309D01*
X9128969Y-24191309D02*
X9033731Y-24238928D01*
X9033731Y-24238928D02*
X8652779Y-24238928D01*
X9652779Y-24715119D02*
X9652779Y-23715119D01*
X10319445Y-23715119D02*
X10509921Y-23715119D01*
X10509921Y-23715119D02*
X10605159Y-23762738D01*
X10605159Y-23762738D02*
X10700397Y-23857976D01*
X10700397Y-23857976D02*
X10748016Y-24048452D01*
X10748016Y-24048452D02*
X10748016Y-24381785D01*
X10748016Y-24381785D02*
X10700397Y-24572261D01*
X10700397Y-24572261D02*
X10605159Y-24667500D01*
X10605159Y-24667500D02*
X10509921Y-24715119D01*
X10509921Y-24715119D02*
X10319445Y-24715119D01*
X10319445Y-24715119D02*
X10224207Y-24667500D01*
X10224207Y-24667500D02*
X10128969Y-24572261D01*
X10128969Y-24572261D02*
X10081350Y-24381785D01*
X10081350Y-24381785D02*
X10081350Y-24048452D01*
X10081350Y-24048452D02*
X10128969Y-23857976D01*
X10128969Y-23857976D02*
X10224207Y-23762738D01*
X10224207Y-23762738D02*
X10319445Y-23715119D01*
X11605159Y-23715119D02*
X11414683Y-23715119D01*
X11414683Y-23715119D02*
X11319445Y-23762738D01*
X11319445Y-23762738D02*
X11271826Y-23810357D01*
X11271826Y-23810357D02*
X11176588Y-23953214D01*
X11176588Y-23953214D02*
X11128969Y-24143690D01*
X11128969Y-24143690D02*
X11128969Y-24524642D01*
X11128969Y-24524642D02*
X11176588Y-24619880D01*
X11176588Y-24619880D02*
X11224207Y-24667500D01*
X11224207Y-24667500D02*
X11319445Y-24715119D01*
X11319445Y-24715119D02*
X11509921Y-24715119D01*
X11509921Y-24715119D02*
X11605159Y-24667500D01*
X11605159Y-24667500D02*
X11652778Y-24619880D01*
X11652778Y-24619880D02*
X11700397Y-24524642D01*
X11700397Y-24524642D02*
X11700397Y-24286547D01*
X11700397Y-24286547D02*
X11652778Y-24191309D01*
X11652778Y-24191309D02*
X11605159Y-24143690D01*
X11605159Y-24143690D02*
X11509921Y-24096071D01*
X11509921Y-24096071D02*
X11319445Y-24096071D01*
X11319445Y-24096071D02*
X11224207Y-24143690D01*
X11224207Y-24143690D02*
X11176588Y-24191309D01*
X11176588Y-24191309D02*
X11128969Y-24286547D01*
X11986112Y-24334166D02*
X12033731Y-24286547D01*
X12033731Y-24286547D02*
X12128969Y-24238928D01*
X12128969Y-24238928D02*
X12319445Y-24334166D01*
X12319445Y-24334166D02*
X12414683Y-24286547D01*
X12414683Y-24286547D02*
X12462302Y-24238928D01*
X25251601Y-36462738D02*
X25156363Y-36415119D01*
X25156363Y-36415119D02*
X25013506Y-36415119D01*
X25013506Y-36415119D02*
X24870649Y-36462738D01*
X24870649Y-36462738D02*
X24775411Y-36557976D01*
X24775411Y-36557976D02*
X24727792Y-36653214D01*
X24727792Y-36653214D02*
X24680173Y-36843690D01*
X24680173Y-36843690D02*
X24680173Y-36986547D01*
X24680173Y-36986547D02*
X24727792Y-37177023D01*
X24727792Y-37177023D02*
X24775411Y-37272261D01*
X24775411Y-37272261D02*
X24870649Y-37367500D01*
X24870649Y-37367500D02*
X25013506Y-37415119D01*
X25013506Y-37415119D02*
X25108744Y-37415119D01*
X25108744Y-37415119D02*
X25251601Y-37367500D01*
X25251601Y-37367500D02*
X25299220Y-37319880D01*
X25299220Y-37319880D02*
X25299220Y-36986547D01*
X25299220Y-36986547D02*
X25108744Y-36986547D01*
X25727792Y-37415119D02*
X25727792Y-36415119D01*
X25727792Y-36415119D02*
X26299220Y-37415119D01*
X26299220Y-37415119D02*
X26299220Y-36415119D01*
X26775411Y-37415119D02*
X26775411Y-36415119D01*
X26775411Y-36415119D02*
X27013506Y-36415119D01*
X27013506Y-36415119D02*
X27156363Y-36462738D01*
X27156363Y-36462738D02*
X27251601Y-36557976D01*
X27251601Y-36557976D02*
X27299220Y-36653214D01*
X27299220Y-36653214D02*
X27346839Y-36843690D01*
X27346839Y-36843690D02*
X27346839Y-36986547D01*
X27346839Y-36986547D02*
X27299220Y-37177023D01*
X27299220Y-37177023D02*
X27251601Y-37272261D01*
X27251601Y-37272261D02*
X27156363Y-37367500D01*
X27156363Y-37367500D02*
X27013506Y-37415119D01*
X27013506Y-37415119D02*
X26775411Y-37415119D01*
X8176588Y-36462738D02*
X8081350Y-36415119D01*
X8081350Y-36415119D02*
X7938493Y-36415119D01*
X7938493Y-36415119D02*
X7795636Y-36462738D01*
X7795636Y-36462738D02*
X7700398Y-36557976D01*
X7700398Y-36557976D02*
X7652779Y-36653214D01*
X7652779Y-36653214D02*
X7605160Y-36843690D01*
X7605160Y-36843690D02*
X7605160Y-36986547D01*
X7605160Y-36986547D02*
X7652779Y-37177023D01*
X7652779Y-37177023D02*
X7700398Y-37272261D01*
X7700398Y-37272261D02*
X7795636Y-37367500D01*
X7795636Y-37367500D02*
X7938493Y-37415119D01*
X7938493Y-37415119D02*
X8033731Y-37415119D01*
X8033731Y-37415119D02*
X8176588Y-37367500D01*
X8176588Y-37367500D02*
X8224207Y-37319880D01*
X8224207Y-37319880D02*
X8224207Y-36986547D01*
X8224207Y-36986547D02*
X8033731Y-36986547D01*
X8652779Y-37415119D02*
X8652779Y-36415119D01*
X8652779Y-36415119D02*
X9224207Y-37415119D01*
X9224207Y-37415119D02*
X9224207Y-36415119D01*
X9700398Y-37415119D02*
X9700398Y-36415119D01*
X9700398Y-36415119D02*
X9938493Y-36415119D01*
X9938493Y-36415119D02*
X10081350Y-36462738D01*
X10081350Y-36462738D02*
X10176588Y-36557976D01*
X10176588Y-36557976D02*
X10224207Y-36653214D01*
X10224207Y-36653214D02*
X10271826Y-36843690D01*
X10271826Y-36843690D02*
X10271826Y-36986547D01*
X10271826Y-36986547D02*
X10224207Y-37177023D01*
X10224207Y-37177023D02*
X10176588Y-37272261D01*
X10176588Y-37272261D02*
X10081350Y-37367500D01*
X10081350Y-37367500D02*
X9938493Y-37415119D01*
X9938493Y-37415119D02*
X9700398Y-37415119D01*
X15108744Y-31382738D02*
X15013506Y-31335119D01*
X15013506Y-31335119D02*
X14870649Y-31335119D01*
X14870649Y-31335119D02*
X14727792Y-31382738D01*
X14727792Y-31382738D02*
X14632554Y-31477976D01*
X14632554Y-31477976D02*
X14584935Y-31573214D01*
X14584935Y-31573214D02*
X14537316Y-31763690D01*
X14537316Y-31763690D02*
X14537316Y-31906547D01*
X14537316Y-31906547D02*
X14584935Y-32097023D01*
X14584935Y-32097023D02*
X14632554Y-32192261D01*
X14632554Y-32192261D02*
X14727792Y-32287500D01*
X14727792Y-32287500D02*
X14870649Y-32335119D01*
X14870649Y-32335119D02*
X14965887Y-32335119D01*
X14965887Y-32335119D02*
X15108744Y-32287500D01*
X15108744Y-32287500D02*
X15156363Y-32239880D01*
X15156363Y-32239880D02*
X15156363Y-31906547D01*
X15156363Y-31906547D02*
X14965887Y-31906547D01*
X15584935Y-32335119D02*
X15584935Y-31335119D01*
X15584935Y-31335119D02*
X15965887Y-31335119D01*
X15965887Y-31335119D02*
X16061125Y-31382738D01*
X16061125Y-31382738D02*
X16108744Y-31430357D01*
X16108744Y-31430357D02*
X16156363Y-31525595D01*
X16156363Y-31525595D02*
X16156363Y-31668452D01*
X16156363Y-31668452D02*
X16108744Y-31763690D01*
X16108744Y-31763690D02*
X16061125Y-31811309D01*
X16061125Y-31811309D02*
X15965887Y-31858928D01*
X15965887Y-31858928D02*
X15584935Y-31858928D01*
X16584935Y-32335119D02*
X16584935Y-31335119D01*
X17251601Y-31335119D02*
X17442077Y-31335119D01*
X17442077Y-31335119D02*
X17537315Y-31382738D01*
X17537315Y-31382738D02*
X17632553Y-31477976D01*
X17632553Y-31477976D02*
X17680172Y-31668452D01*
X17680172Y-31668452D02*
X17680172Y-32001785D01*
X17680172Y-32001785D02*
X17632553Y-32192261D01*
X17632553Y-32192261D02*
X17537315Y-32287500D01*
X17537315Y-32287500D02*
X17442077Y-32335119D01*
X17442077Y-32335119D02*
X17251601Y-32335119D01*
X17251601Y-32335119D02*
X17156363Y-32287500D01*
X17156363Y-32287500D02*
X17061125Y-32192261D01*
X17061125Y-32192261D02*
X17013506Y-32001785D01*
X17013506Y-32001785D02*
X17013506Y-31668452D01*
X17013506Y-31668452D02*
X17061125Y-31477976D01*
X17061125Y-31477976D02*
X17156363Y-31382738D01*
X17156363Y-31382738D02*
X17251601Y-31335119D01*
X18632553Y-32335119D02*
X18061125Y-32335119D01*
X18346839Y-32335119D02*
X18346839Y-31335119D01*
X18346839Y-31335119D02*
X18251601Y-31477976D01*
X18251601Y-31477976D02*
X18156363Y-31573214D01*
X18156363Y-31573214D02*
X18061125Y-31620833D01*
X18965887Y-31335119D02*
X19584934Y-31335119D01*
X19584934Y-31335119D02*
X19251601Y-31716071D01*
X19251601Y-31716071D02*
X19394458Y-31716071D01*
X19394458Y-31716071D02*
X19489696Y-31763690D01*
X19489696Y-31763690D02*
X19537315Y-31811309D01*
X19537315Y-31811309D02*
X19584934Y-31906547D01*
X19584934Y-31906547D02*
X19584934Y-32144642D01*
X19584934Y-32144642D02*
X19537315Y-32239880D01*
X19537315Y-32239880D02*
X19489696Y-32287500D01*
X19489696Y-32287500D02*
X19394458Y-32335119D01*
X19394458Y-32335119D02*
X19108744Y-32335119D01*
X19108744Y-32335119D02*
X19013506Y-32287500D01*
X19013506Y-32287500D02*
X18965887Y-32239880D01*
X19870649Y-31954166D02*
X19918268Y-31906547D01*
X19918268Y-31906547D02*
X20013506Y-31858928D01*
X20013506Y-31858928D02*
X20203982Y-31954166D01*
X20203982Y-31954166D02*
X20299220Y-31906547D01*
X20299220Y-31906547D02*
X20346839Y-31858928D01*
X21442077Y-31287500D02*
X20584935Y-32573214D01*
X21775411Y-31335119D02*
X21775411Y-32144642D01*
X21775411Y-32144642D02*
X21823030Y-32239880D01*
X21823030Y-32239880D02*
X21870649Y-32287500D01*
X21870649Y-32287500D02*
X21965887Y-32335119D01*
X21965887Y-32335119D02*
X22156363Y-32335119D01*
X22156363Y-32335119D02*
X22251601Y-32287500D01*
X22251601Y-32287500D02*
X22299220Y-32239880D01*
X22299220Y-32239880D02*
X22346839Y-32144642D01*
X22346839Y-32144642D02*
X22346839Y-31335119D01*
X22775411Y-32287500D02*
X22918268Y-32335119D01*
X22918268Y-32335119D02*
X23156363Y-32335119D01*
X23156363Y-32335119D02*
X23251601Y-32287500D01*
X23251601Y-32287500D02*
X23299220Y-32239880D01*
X23299220Y-32239880D02*
X23346839Y-32144642D01*
X23346839Y-32144642D02*
X23346839Y-32049404D01*
X23346839Y-32049404D02*
X23299220Y-31954166D01*
X23299220Y-31954166D02*
X23251601Y-31906547D01*
X23251601Y-31906547D02*
X23156363Y-31858928D01*
X23156363Y-31858928D02*
X22965887Y-31811309D01*
X22965887Y-31811309D02*
X22870649Y-31763690D01*
X22870649Y-31763690D02*
X22823030Y-31716071D01*
X22823030Y-31716071D02*
X22775411Y-31620833D01*
X22775411Y-31620833D02*
X22775411Y-31525595D01*
X22775411Y-31525595D02*
X22823030Y-31430357D01*
X22823030Y-31430357D02*
X22870649Y-31382738D01*
X22870649Y-31382738D02*
X22965887Y-31335119D01*
X22965887Y-31335119D02*
X23203982Y-31335119D01*
X23203982Y-31335119D02*
X23346839Y-31382738D01*
X24108744Y-31811309D02*
X24251601Y-31858928D01*
X24251601Y-31858928D02*
X24299220Y-31906547D01*
X24299220Y-31906547D02*
X24346839Y-32001785D01*
X24346839Y-32001785D02*
X24346839Y-32144642D01*
X24346839Y-32144642D02*
X24299220Y-32239880D01*
X24299220Y-32239880D02*
X24251601Y-32287500D01*
X24251601Y-32287500D02*
X24156363Y-32335119D01*
X24156363Y-32335119D02*
X23775411Y-32335119D01*
X23775411Y-32335119D02*
X23775411Y-31335119D01*
X23775411Y-31335119D02*
X24108744Y-31335119D01*
X24108744Y-31335119D02*
X24203982Y-31382738D01*
X24203982Y-31382738D02*
X24251601Y-31430357D01*
X24251601Y-31430357D02*
X24299220Y-31525595D01*
X24299220Y-31525595D02*
X24299220Y-31620833D01*
X24299220Y-31620833D02*
X24251601Y-31716071D01*
X24251601Y-31716071D02*
X24203982Y-31763690D01*
X24203982Y-31763690D02*
X24108744Y-31811309D01*
X24108744Y-31811309D02*
X23775411Y-31811309D01*
X24537316Y-32430357D02*
X25299220Y-32430357D01*
X25537316Y-32335119D02*
X25537316Y-31335119D01*
X25537316Y-31335119D02*
X25775411Y-31335119D01*
X25775411Y-31335119D02*
X25918268Y-31382738D01*
X25918268Y-31382738D02*
X26013506Y-31477976D01*
X26013506Y-31477976D02*
X26061125Y-31573214D01*
X26061125Y-31573214D02*
X26108744Y-31763690D01*
X26108744Y-31763690D02*
X26108744Y-31906547D01*
X26108744Y-31906547D02*
X26061125Y-32097023D01*
X26061125Y-32097023D02*
X26013506Y-32192261D01*
X26013506Y-32192261D02*
X25918268Y-32287500D01*
X25918268Y-32287500D02*
X25775411Y-32335119D01*
X25775411Y-32335119D02*
X25537316Y-32335119D01*
X26537316Y-31954166D02*
X27299221Y-31954166D01*
X26918268Y-32335119D02*
X26918268Y-31573214D01*
X8176588Y-18682738D02*
X8081350Y-18635119D01*
X8081350Y-18635119D02*
X7938493Y-18635119D01*
X7938493Y-18635119D02*
X7795636Y-18682738D01*
X7795636Y-18682738D02*
X7700398Y-18777976D01*
X7700398Y-18777976D02*
X7652779Y-18873214D01*
X7652779Y-18873214D02*
X7605160Y-19063690D01*
X7605160Y-19063690D02*
X7605160Y-19206547D01*
X7605160Y-19206547D02*
X7652779Y-19397023D01*
X7652779Y-19397023D02*
X7700398Y-19492261D01*
X7700398Y-19492261D02*
X7795636Y-19587500D01*
X7795636Y-19587500D02*
X7938493Y-19635119D01*
X7938493Y-19635119D02*
X8033731Y-19635119D01*
X8033731Y-19635119D02*
X8176588Y-19587500D01*
X8176588Y-19587500D02*
X8224207Y-19539880D01*
X8224207Y-19539880D02*
X8224207Y-19206547D01*
X8224207Y-19206547D02*
X8033731Y-19206547D01*
X8652779Y-19635119D02*
X8652779Y-18635119D01*
X8652779Y-18635119D02*
X9033731Y-18635119D01*
X9033731Y-18635119D02*
X9128969Y-18682738D01*
X9128969Y-18682738D02*
X9176588Y-18730357D01*
X9176588Y-18730357D02*
X9224207Y-18825595D01*
X9224207Y-18825595D02*
X9224207Y-18968452D01*
X9224207Y-18968452D02*
X9176588Y-19063690D01*
X9176588Y-19063690D02*
X9128969Y-19111309D01*
X9128969Y-19111309D02*
X9033731Y-19158928D01*
X9033731Y-19158928D02*
X8652779Y-19158928D01*
X9652779Y-19635119D02*
X9652779Y-18635119D01*
X10319445Y-18635119D02*
X10509921Y-18635119D01*
X10509921Y-18635119D02*
X10605159Y-18682738D01*
X10605159Y-18682738D02*
X10700397Y-18777976D01*
X10700397Y-18777976D02*
X10748016Y-18968452D01*
X10748016Y-18968452D02*
X10748016Y-19301785D01*
X10748016Y-19301785D02*
X10700397Y-19492261D01*
X10700397Y-19492261D02*
X10605159Y-19587500D01*
X10605159Y-19587500D02*
X10509921Y-19635119D01*
X10509921Y-19635119D02*
X10319445Y-19635119D01*
X10319445Y-19635119D02*
X10224207Y-19587500D01*
X10224207Y-19587500D02*
X10128969Y-19492261D01*
X10128969Y-19492261D02*
X10081350Y-19301785D01*
X10081350Y-19301785D02*
X10081350Y-18968452D01*
X10081350Y-18968452D02*
X10128969Y-18777976D01*
X10128969Y-18777976D02*
X10224207Y-18682738D01*
X10224207Y-18682738D02*
X10319445Y-18635119D01*
X11700397Y-19635119D02*
X11128969Y-19635119D01*
X11414683Y-19635119D02*
X11414683Y-18635119D01*
X11414683Y-18635119D02*
X11319445Y-18777976D01*
X11319445Y-18777976D02*
X11224207Y-18873214D01*
X11224207Y-18873214D02*
X11128969Y-18920833D01*
X11986112Y-19254166D02*
X12033731Y-19206547D01*
X12033731Y-19206547D02*
X12128969Y-19158928D01*
X12128969Y-19158928D02*
X12319445Y-19254166D01*
X12319445Y-19254166D02*
X12414683Y-19206547D01*
X12414683Y-19206547D02*
X12462302Y-19158928D01*
X8176588Y-16142738D02*
X8081350Y-16095119D01*
X8081350Y-16095119D02*
X7938493Y-16095119D01*
X7938493Y-16095119D02*
X7795636Y-16142738D01*
X7795636Y-16142738D02*
X7700398Y-16237976D01*
X7700398Y-16237976D02*
X7652779Y-16333214D01*
X7652779Y-16333214D02*
X7605160Y-16523690D01*
X7605160Y-16523690D02*
X7605160Y-16666547D01*
X7605160Y-16666547D02*
X7652779Y-16857023D01*
X7652779Y-16857023D02*
X7700398Y-16952261D01*
X7700398Y-16952261D02*
X7795636Y-17047500D01*
X7795636Y-17047500D02*
X7938493Y-17095119D01*
X7938493Y-17095119D02*
X8033731Y-17095119D01*
X8033731Y-17095119D02*
X8176588Y-17047500D01*
X8176588Y-17047500D02*
X8224207Y-16999880D01*
X8224207Y-16999880D02*
X8224207Y-16666547D01*
X8224207Y-16666547D02*
X8033731Y-16666547D01*
X8652779Y-17095119D02*
X8652779Y-16095119D01*
X8652779Y-16095119D02*
X9033731Y-16095119D01*
X9033731Y-16095119D02*
X9128969Y-16142738D01*
X9128969Y-16142738D02*
X9176588Y-16190357D01*
X9176588Y-16190357D02*
X9224207Y-16285595D01*
X9224207Y-16285595D02*
X9224207Y-16428452D01*
X9224207Y-16428452D02*
X9176588Y-16523690D01*
X9176588Y-16523690D02*
X9128969Y-16571309D01*
X9128969Y-16571309D02*
X9033731Y-16618928D01*
X9033731Y-16618928D02*
X8652779Y-16618928D01*
X9652779Y-17095119D02*
X9652779Y-16095119D01*
X10319445Y-16095119D02*
X10509921Y-16095119D01*
X10509921Y-16095119D02*
X10605159Y-16142738D01*
X10605159Y-16142738D02*
X10700397Y-16237976D01*
X10700397Y-16237976D02*
X10748016Y-16428452D01*
X10748016Y-16428452D02*
X10748016Y-16761785D01*
X10748016Y-16761785D02*
X10700397Y-16952261D01*
X10700397Y-16952261D02*
X10605159Y-17047500D01*
X10605159Y-17047500D02*
X10509921Y-17095119D01*
X10509921Y-17095119D02*
X10319445Y-17095119D01*
X10319445Y-17095119D02*
X10224207Y-17047500D01*
X10224207Y-17047500D02*
X10128969Y-16952261D01*
X10128969Y-16952261D02*
X10081350Y-16761785D01*
X10081350Y-16761785D02*
X10081350Y-16428452D01*
X10081350Y-16428452D02*
X10128969Y-16237976D01*
X10128969Y-16237976D02*
X10224207Y-16142738D01*
X10224207Y-16142738D02*
X10319445Y-16095119D01*
X11367064Y-16095119D02*
X11462302Y-16095119D01*
X11462302Y-16095119D02*
X11557540Y-16142738D01*
X11557540Y-16142738D02*
X11605159Y-16190357D01*
X11605159Y-16190357D02*
X11652778Y-16285595D01*
X11652778Y-16285595D02*
X11700397Y-16476071D01*
X11700397Y-16476071D02*
X11700397Y-16714166D01*
X11700397Y-16714166D02*
X11652778Y-16904642D01*
X11652778Y-16904642D02*
X11605159Y-16999880D01*
X11605159Y-16999880D02*
X11557540Y-17047500D01*
X11557540Y-17047500D02*
X11462302Y-17095119D01*
X11462302Y-17095119D02*
X11367064Y-17095119D01*
X11367064Y-17095119D02*
X11271826Y-17047500D01*
X11271826Y-17047500D02*
X11224207Y-16999880D01*
X11224207Y-16999880D02*
X11176588Y-16904642D01*
X11176588Y-16904642D02*
X11128969Y-16714166D01*
X11128969Y-16714166D02*
X11128969Y-16476071D01*
X11128969Y-16476071D02*
X11176588Y-16285595D01*
X11176588Y-16285595D02*
X11224207Y-16190357D01*
X11224207Y-16190357D02*
X11271826Y-16142738D01*
X11271826Y-16142738D02*
X11367064Y-16095119D01*
X11986112Y-16714166D02*
X12033731Y-16666547D01*
X12033731Y-16666547D02*
X12128969Y-16618928D01*
X12128969Y-16618928D02*
X12319445Y-16714166D01*
X12319445Y-16714166D02*
X12414683Y-16666547D01*
X12414683Y-16666547D02*
X12462302Y-16618928D01*
X8176588Y-11062738D02*
X8081350Y-11015119D01*
X8081350Y-11015119D02*
X7938493Y-11015119D01*
X7938493Y-11015119D02*
X7795636Y-11062738D01*
X7795636Y-11062738D02*
X7700398Y-11157976D01*
X7700398Y-11157976D02*
X7652779Y-11253214D01*
X7652779Y-11253214D02*
X7605160Y-11443690D01*
X7605160Y-11443690D02*
X7605160Y-11586547D01*
X7605160Y-11586547D02*
X7652779Y-11777023D01*
X7652779Y-11777023D02*
X7700398Y-11872261D01*
X7700398Y-11872261D02*
X7795636Y-11967500D01*
X7795636Y-11967500D02*
X7938493Y-12015119D01*
X7938493Y-12015119D02*
X8033731Y-12015119D01*
X8033731Y-12015119D02*
X8176588Y-11967500D01*
X8176588Y-11967500D02*
X8224207Y-11919880D01*
X8224207Y-11919880D02*
X8224207Y-11586547D01*
X8224207Y-11586547D02*
X8033731Y-11586547D01*
X8652779Y-12015119D02*
X8652779Y-11015119D01*
X8652779Y-11015119D02*
X9033731Y-11015119D01*
X9033731Y-11015119D02*
X9128969Y-11062738D01*
X9128969Y-11062738D02*
X9176588Y-11110357D01*
X9176588Y-11110357D02*
X9224207Y-11205595D01*
X9224207Y-11205595D02*
X9224207Y-11348452D01*
X9224207Y-11348452D02*
X9176588Y-11443690D01*
X9176588Y-11443690D02*
X9128969Y-11491309D01*
X9128969Y-11491309D02*
X9033731Y-11538928D01*
X9033731Y-11538928D02*
X8652779Y-11538928D01*
X9652779Y-12015119D02*
X9652779Y-11015119D01*
X10319445Y-11015119D02*
X10509921Y-11015119D01*
X10509921Y-11015119D02*
X10605159Y-11062738D01*
X10605159Y-11062738D02*
X10700397Y-11157976D01*
X10700397Y-11157976D02*
X10748016Y-11348452D01*
X10748016Y-11348452D02*
X10748016Y-11681785D01*
X10748016Y-11681785D02*
X10700397Y-11872261D01*
X10700397Y-11872261D02*
X10605159Y-11967500D01*
X10605159Y-11967500D02*
X10509921Y-12015119D01*
X10509921Y-12015119D02*
X10319445Y-12015119D01*
X10319445Y-12015119D02*
X10224207Y-11967500D01*
X10224207Y-11967500D02*
X10128969Y-11872261D01*
X10128969Y-11872261D02*
X10081350Y-11681785D01*
X10081350Y-11681785D02*
X10081350Y-11348452D01*
X10081350Y-11348452D02*
X10128969Y-11157976D01*
X10128969Y-11157976D02*
X10224207Y-11062738D01*
X10224207Y-11062738D02*
X10319445Y-11015119D01*
X11605159Y-11348452D02*
X11605159Y-12015119D01*
X11367064Y-10967500D02*
X11128969Y-11681785D01*
X11128969Y-11681785D02*
X11748016Y-11681785D01*
X11986112Y-11634166D02*
X12033731Y-11586547D01*
X12033731Y-11586547D02*
X12128969Y-11538928D01*
X12128969Y-11538928D02*
X12319445Y-11634166D01*
X12319445Y-11634166D02*
X12414683Y-11586547D01*
X12414683Y-11586547D02*
X12462302Y-11538928D01*
X8176588Y-13602738D02*
X8081350Y-13555119D01*
X8081350Y-13555119D02*
X7938493Y-13555119D01*
X7938493Y-13555119D02*
X7795636Y-13602738D01*
X7795636Y-13602738D02*
X7700398Y-13697976D01*
X7700398Y-13697976D02*
X7652779Y-13793214D01*
X7652779Y-13793214D02*
X7605160Y-13983690D01*
X7605160Y-13983690D02*
X7605160Y-14126547D01*
X7605160Y-14126547D02*
X7652779Y-14317023D01*
X7652779Y-14317023D02*
X7700398Y-14412261D01*
X7700398Y-14412261D02*
X7795636Y-14507500D01*
X7795636Y-14507500D02*
X7938493Y-14555119D01*
X7938493Y-14555119D02*
X8033731Y-14555119D01*
X8033731Y-14555119D02*
X8176588Y-14507500D01*
X8176588Y-14507500D02*
X8224207Y-14459880D01*
X8224207Y-14459880D02*
X8224207Y-14126547D01*
X8224207Y-14126547D02*
X8033731Y-14126547D01*
X8652779Y-14555119D02*
X8652779Y-13555119D01*
X8652779Y-13555119D02*
X9033731Y-13555119D01*
X9033731Y-13555119D02*
X9128969Y-13602738D01*
X9128969Y-13602738D02*
X9176588Y-13650357D01*
X9176588Y-13650357D02*
X9224207Y-13745595D01*
X9224207Y-13745595D02*
X9224207Y-13888452D01*
X9224207Y-13888452D02*
X9176588Y-13983690D01*
X9176588Y-13983690D02*
X9128969Y-14031309D01*
X9128969Y-14031309D02*
X9033731Y-14078928D01*
X9033731Y-14078928D02*
X8652779Y-14078928D01*
X9652779Y-14555119D02*
X9652779Y-13555119D01*
X10319445Y-13555119D02*
X10509921Y-13555119D01*
X10509921Y-13555119D02*
X10605159Y-13602738D01*
X10605159Y-13602738D02*
X10700397Y-13697976D01*
X10700397Y-13697976D02*
X10748016Y-13888452D01*
X10748016Y-13888452D02*
X10748016Y-14221785D01*
X10748016Y-14221785D02*
X10700397Y-14412261D01*
X10700397Y-14412261D02*
X10605159Y-14507500D01*
X10605159Y-14507500D02*
X10509921Y-14555119D01*
X10509921Y-14555119D02*
X10319445Y-14555119D01*
X10319445Y-14555119D02*
X10224207Y-14507500D01*
X10224207Y-14507500D02*
X10128969Y-14412261D01*
X10128969Y-14412261D02*
X10081350Y-14221785D01*
X10081350Y-14221785D02*
X10081350Y-13888452D01*
X10081350Y-13888452D02*
X10128969Y-13697976D01*
X10128969Y-13697976D02*
X10224207Y-13602738D01*
X10224207Y-13602738D02*
X10319445Y-13555119D01*
X11652778Y-13555119D02*
X11176588Y-13555119D01*
X11176588Y-13555119D02*
X11128969Y-14031309D01*
X11128969Y-14031309D02*
X11176588Y-13983690D01*
X11176588Y-13983690D02*
X11271826Y-13936071D01*
X11271826Y-13936071D02*
X11509921Y-13936071D01*
X11509921Y-13936071D02*
X11605159Y-13983690D01*
X11605159Y-13983690D02*
X11652778Y-14031309D01*
X11652778Y-14031309D02*
X11700397Y-14126547D01*
X11700397Y-14126547D02*
X11700397Y-14364642D01*
X11700397Y-14364642D02*
X11652778Y-14459880D01*
X11652778Y-14459880D02*
X11605159Y-14507500D01*
X11605159Y-14507500D02*
X11509921Y-14555119D01*
X11509921Y-14555119D02*
X11271826Y-14555119D01*
X11271826Y-14555119D02*
X11176588Y-14507500D01*
X11176588Y-14507500D02*
X11128969Y-14459880D01*
X11986112Y-14174166D02*
X12033731Y-14126547D01*
X12033731Y-14126547D02*
X12128969Y-14078928D01*
X12128969Y-14078928D02*
X12319445Y-14174166D01*
X12319445Y-14174166D02*
X12414683Y-14126547D01*
X12414683Y-14126547D02*
X12462302Y-14078928D01*
X23503895Y-44259919D02*
X23503895Y-45069442D01*
X23503895Y-45069442D02*
X23551514Y-45164680D01*
X23551514Y-45164680D02*
X23599133Y-45212300D01*
X23599133Y-45212300D02*
X23694371Y-45259919D01*
X23694371Y-45259919D02*
X23884847Y-45259919D01*
X23884847Y-45259919D02*
X23980085Y-45212300D01*
X23980085Y-45212300D02*
X24027704Y-45164680D01*
X24027704Y-45164680D02*
X24075323Y-45069442D01*
X24075323Y-45069442D02*
X24075323Y-44259919D01*
X24503895Y-45212300D02*
X24646752Y-45259919D01*
X24646752Y-45259919D02*
X24884847Y-45259919D01*
X24884847Y-45259919D02*
X24980085Y-45212300D01*
X24980085Y-45212300D02*
X25027704Y-45164680D01*
X25027704Y-45164680D02*
X25075323Y-45069442D01*
X25075323Y-45069442D02*
X25075323Y-44974204D01*
X25075323Y-44974204D02*
X25027704Y-44878966D01*
X25027704Y-44878966D02*
X24980085Y-44831347D01*
X24980085Y-44831347D02*
X24884847Y-44783728D01*
X24884847Y-44783728D02*
X24694371Y-44736109D01*
X24694371Y-44736109D02*
X24599133Y-44688490D01*
X24599133Y-44688490D02*
X24551514Y-44640871D01*
X24551514Y-44640871D02*
X24503895Y-44545633D01*
X24503895Y-44545633D02*
X24503895Y-44450395D01*
X24503895Y-44450395D02*
X24551514Y-44355157D01*
X24551514Y-44355157D02*
X24599133Y-44307538D01*
X24599133Y-44307538D02*
X24694371Y-44259919D01*
X24694371Y-44259919D02*
X24932466Y-44259919D01*
X24932466Y-44259919D02*
X25075323Y-44307538D01*
X25837228Y-44736109D02*
X25980085Y-44783728D01*
X25980085Y-44783728D02*
X26027704Y-44831347D01*
X26027704Y-44831347D02*
X26075323Y-44926585D01*
X26075323Y-44926585D02*
X26075323Y-45069442D01*
X26075323Y-45069442D02*
X26027704Y-45164680D01*
X26027704Y-45164680D02*
X25980085Y-45212300D01*
X25980085Y-45212300D02*
X25884847Y-45259919D01*
X25884847Y-45259919D02*
X25503895Y-45259919D01*
X25503895Y-45259919D02*
X25503895Y-44259919D01*
X25503895Y-44259919D02*
X25837228Y-44259919D01*
X25837228Y-44259919D02*
X25932466Y-44307538D01*
X25932466Y-44307538D02*
X25980085Y-44355157D01*
X25980085Y-44355157D02*
X26027704Y-44450395D01*
X26027704Y-44450395D02*
X26027704Y-44545633D01*
X26027704Y-44545633D02*
X25980085Y-44640871D01*
X25980085Y-44640871D02*
X25932466Y-44688490D01*
X25932466Y-44688490D02*
X25837228Y-44736109D01*
X25837228Y-44736109D02*
X25503895Y-44736109D01*
X7557541Y-855119D02*
X8176588Y-855119D01*
X8176588Y-855119D02*
X7843255Y-1236071D01*
X7843255Y-1236071D02*
X7986112Y-1236071D01*
X7986112Y-1236071D02*
X8081350Y-1283690D01*
X8081350Y-1283690D02*
X8128969Y-1331309D01*
X8128969Y-1331309D02*
X8176588Y-1426547D01*
X8176588Y-1426547D02*
X8176588Y-1664642D01*
X8176588Y-1664642D02*
X8128969Y-1759880D01*
X8128969Y-1759880D02*
X8081350Y-1807500D01*
X8081350Y-1807500D02*
X7986112Y-1855119D01*
X7986112Y-1855119D02*
X7700398Y-1855119D01*
X7700398Y-1855119D02*
X7605160Y-1807500D01*
X7605160Y-1807500D02*
X7557541Y-1759880D01*
X8462303Y-855119D02*
X8795636Y-1855119D01*
X8795636Y-1855119D02*
X9128969Y-855119D01*
X9367065Y-855119D02*
X9986112Y-855119D01*
X9986112Y-855119D02*
X9652779Y-1236071D01*
X9652779Y-1236071D02*
X9795636Y-1236071D01*
X9795636Y-1236071D02*
X9890874Y-1283690D01*
X9890874Y-1283690D02*
X9938493Y-1331309D01*
X9938493Y-1331309D02*
X9986112Y-1426547D01*
X9986112Y-1426547D02*
X9986112Y-1664642D01*
X9986112Y-1664642D02*
X9938493Y-1759880D01*
X9938493Y-1759880D02*
X9890874Y-1807500D01*
X9890874Y-1807500D02*
X9795636Y-1855119D01*
X9795636Y-1855119D02*
X9509922Y-1855119D01*
X9509922Y-1855119D02*
X9414684Y-1807500D01*
X9414684Y-1807500D02*
X9367065Y-1759880D01*
X22870649Y-11062738D02*
X22775411Y-11015119D01*
X22775411Y-11015119D02*
X22632554Y-11015119D01*
X22632554Y-11015119D02*
X22489697Y-11062738D01*
X22489697Y-11062738D02*
X22394459Y-11157976D01*
X22394459Y-11157976D02*
X22346840Y-11253214D01*
X22346840Y-11253214D02*
X22299221Y-11443690D01*
X22299221Y-11443690D02*
X22299221Y-11586547D01*
X22299221Y-11586547D02*
X22346840Y-11777023D01*
X22346840Y-11777023D02*
X22394459Y-11872261D01*
X22394459Y-11872261D02*
X22489697Y-11967500D01*
X22489697Y-11967500D02*
X22632554Y-12015119D01*
X22632554Y-12015119D02*
X22727792Y-12015119D01*
X22727792Y-12015119D02*
X22870649Y-11967500D01*
X22870649Y-11967500D02*
X22918268Y-11919880D01*
X22918268Y-11919880D02*
X22918268Y-11586547D01*
X22918268Y-11586547D02*
X22727792Y-11586547D01*
X23346840Y-12015119D02*
X23346840Y-11015119D01*
X23346840Y-11015119D02*
X23727792Y-11015119D01*
X23727792Y-11015119D02*
X23823030Y-11062738D01*
X23823030Y-11062738D02*
X23870649Y-11110357D01*
X23870649Y-11110357D02*
X23918268Y-11205595D01*
X23918268Y-11205595D02*
X23918268Y-11348452D01*
X23918268Y-11348452D02*
X23870649Y-11443690D01*
X23870649Y-11443690D02*
X23823030Y-11491309D01*
X23823030Y-11491309D02*
X23727792Y-11538928D01*
X23727792Y-11538928D02*
X23346840Y-11538928D01*
X24346840Y-12015119D02*
X24346840Y-11015119D01*
X25013506Y-11015119D02*
X25203982Y-11015119D01*
X25203982Y-11015119D02*
X25299220Y-11062738D01*
X25299220Y-11062738D02*
X25394458Y-11157976D01*
X25394458Y-11157976D02*
X25442077Y-11348452D01*
X25442077Y-11348452D02*
X25442077Y-11681785D01*
X25442077Y-11681785D02*
X25394458Y-11872261D01*
X25394458Y-11872261D02*
X25299220Y-11967500D01*
X25299220Y-11967500D02*
X25203982Y-12015119D01*
X25203982Y-12015119D02*
X25013506Y-12015119D01*
X25013506Y-12015119D02*
X24918268Y-11967500D01*
X24918268Y-11967500D02*
X24823030Y-11872261D01*
X24823030Y-11872261D02*
X24775411Y-11681785D01*
X24775411Y-11681785D02*
X24775411Y-11348452D01*
X24775411Y-11348452D02*
X24823030Y-11157976D01*
X24823030Y-11157976D02*
X24918268Y-11062738D01*
X24918268Y-11062738D02*
X25013506Y-11015119D01*
X25823030Y-11110357D02*
X25870649Y-11062738D01*
X25870649Y-11062738D02*
X25965887Y-11015119D01*
X25965887Y-11015119D02*
X26203982Y-11015119D01*
X26203982Y-11015119D02*
X26299220Y-11062738D01*
X26299220Y-11062738D02*
X26346839Y-11110357D01*
X26346839Y-11110357D02*
X26394458Y-11205595D01*
X26394458Y-11205595D02*
X26394458Y-11300833D01*
X26394458Y-11300833D02*
X26346839Y-11443690D01*
X26346839Y-11443690D02*
X25775411Y-12015119D01*
X25775411Y-12015119D02*
X26394458Y-12015119D01*
X26775411Y-11110357D02*
X26823030Y-11062738D01*
X26823030Y-11062738D02*
X26918268Y-11015119D01*
X26918268Y-11015119D02*
X27156363Y-11015119D01*
X27156363Y-11015119D02*
X27251601Y-11062738D01*
X27251601Y-11062738D02*
X27299220Y-11110357D01*
X27299220Y-11110357D02*
X27346839Y-11205595D01*
X27346839Y-11205595D02*
X27346839Y-11300833D01*
X27346839Y-11300833D02*
X27299220Y-11443690D01*
X27299220Y-11443690D02*
X26727792Y-12015119D01*
X26727792Y-12015119D02*
X27346839Y-12015119D01*
X8176588Y-31382738D02*
X8081350Y-31335119D01*
X8081350Y-31335119D02*
X7938493Y-31335119D01*
X7938493Y-31335119D02*
X7795636Y-31382738D01*
X7795636Y-31382738D02*
X7700398Y-31477976D01*
X7700398Y-31477976D02*
X7652779Y-31573214D01*
X7652779Y-31573214D02*
X7605160Y-31763690D01*
X7605160Y-31763690D02*
X7605160Y-31906547D01*
X7605160Y-31906547D02*
X7652779Y-32097023D01*
X7652779Y-32097023D02*
X7700398Y-32192261D01*
X7700398Y-32192261D02*
X7795636Y-32287500D01*
X7795636Y-32287500D02*
X7938493Y-32335119D01*
X7938493Y-32335119D02*
X8033731Y-32335119D01*
X8033731Y-32335119D02*
X8176588Y-32287500D01*
X8176588Y-32287500D02*
X8224207Y-32239880D01*
X8224207Y-32239880D02*
X8224207Y-31906547D01*
X8224207Y-31906547D02*
X8033731Y-31906547D01*
X8652779Y-32335119D02*
X8652779Y-31335119D01*
X8652779Y-31335119D02*
X9224207Y-32335119D01*
X9224207Y-32335119D02*
X9224207Y-31335119D01*
X9700398Y-32335119D02*
X9700398Y-31335119D01*
X9700398Y-31335119D02*
X9938493Y-31335119D01*
X9938493Y-31335119D02*
X10081350Y-31382738D01*
X10081350Y-31382738D02*
X10176588Y-31477976D01*
X10176588Y-31477976D02*
X10224207Y-31573214D01*
X10224207Y-31573214D02*
X10271826Y-31763690D01*
X10271826Y-31763690D02*
X10271826Y-31906547D01*
X10271826Y-31906547D02*
X10224207Y-32097023D01*
X10224207Y-32097023D02*
X10176588Y-32192261D01*
X10176588Y-32192261D02*
X10081350Y-32287500D01*
X10081350Y-32287500D02*
X9938493Y-32335119D01*
X9938493Y-32335119D02*
X9700398Y-32335119D01*
X8176588Y-21222738D02*
X8081350Y-21175119D01*
X8081350Y-21175119D02*
X7938493Y-21175119D01*
X7938493Y-21175119D02*
X7795636Y-21222738D01*
X7795636Y-21222738D02*
X7700398Y-21317976D01*
X7700398Y-21317976D02*
X7652779Y-21413214D01*
X7652779Y-21413214D02*
X7605160Y-21603690D01*
X7605160Y-21603690D02*
X7605160Y-21746547D01*
X7605160Y-21746547D02*
X7652779Y-21937023D01*
X7652779Y-21937023D02*
X7700398Y-22032261D01*
X7700398Y-22032261D02*
X7795636Y-22127500D01*
X7795636Y-22127500D02*
X7938493Y-22175119D01*
X7938493Y-22175119D02*
X8033731Y-22175119D01*
X8033731Y-22175119D02*
X8176588Y-22127500D01*
X8176588Y-22127500D02*
X8224207Y-22079880D01*
X8224207Y-22079880D02*
X8224207Y-21746547D01*
X8224207Y-21746547D02*
X8033731Y-21746547D01*
X8652779Y-22175119D02*
X8652779Y-21175119D01*
X8652779Y-21175119D02*
X9033731Y-21175119D01*
X9033731Y-21175119D02*
X9128969Y-21222738D01*
X9128969Y-21222738D02*
X9176588Y-21270357D01*
X9176588Y-21270357D02*
X9224207Y-21365595D01*
X9224207Y-21365595D02*
X9224207Y-21508452D01*
X9224207Y-21508452D02*
X9176588Y-21603690D01*
X9176588Y-21603690D02*
X9128969Y-21651309D01*
X9128969Y-21651309D02*
X9033731Y-21698928D01*
X9033731Y-21698928D02*
X8652779Y-21698928D01*
X9652779Y-22175119D02*
X9652779Y-21175119D01*
X10319445Y-21175119D02*
X10509921Y-21175119D01*
X10509921Y-21175119D02*
X10605159Y-21222738D01*
X10605159Y-21222738D02*
X10700397Y-21317976D01*
X10700397Y-21317976D02*
X10748016Y-21508452D01*
X10748016Y-21508452D02*
X10748016Y-21841785D01*
X10748016Y-21841785D02*
X10700397Y-22032261D01*
X10700397Y-22032261D02*
X10605159Y-22127500D01*
X10605159Y-22127500D02*
X10509921Y-22175119D01*
X10509921Y-22175119D02*
X10319445Y-22175119D01*
X10319445Y-22175119D02*
X10224207Y-22127500D01*
X10224207Y-22127500D02*
X10128969Y-22032261D01*
X10128969Y-22032261D02*
X10081350Y-21841785D01*
X10081350Y-21841785D02*
X10081350Y-21508452D01*
X10081350Y-21508452D02*
X10128969Y-21317976D01*
X10128969Y-21317976D02*
X10224207Y-21222738D01*
X10224207Y-21222738D02*
X10319445Y-21175119D01*
X11319445Y-21603690D02*
X11224207Y-21556071D01*
X11224207Y-21556071D02*
X11176588Y-21508452D01*
X11176588Y-21508452D02*
X11128969Y-21413214D01*
X11128969Y-21413214D02*
X11128969Y-21365595D01*
X11128969Y-21365595D02*
X11176588Y-21270357D01*
X11176588Y-21270357D02*
X11224207Y-21222738D01*
X11224207Y-21222738D02*
X11319445Y-21175119D01*
X11319445Y-21175119D02*
X11509921Y-21175119D01*
X11509921Y-21175119D02*
X11605159Y-21222738D01*
X11605159Y-21222738D02*
X11652778Y-21270357D01*
X11652778Y-21270357D02*
X11700397Y-21365595D01*
X11700397Y-21365595D02*
X11700397Y-21413214D01*
X11700397Y-21413214D02*
X11652778Y-21508452D01*
X11652778Y-21508452D02*
X11605159Y-21556071D01*
X11605159Y-21556071D02*
X11509921Y-21603690D01*
X11509921Y-21603690D02*
X11319445Y-21603690D01*
X11319445Y-21603690D02*
X11224207Y-21651309D01*
X11224207Y-21651309D02*
X11176588Y-21698928D01*
X11176588Y-21698928D02*
X11128969Y-21794166D01*
X11128969Y-21794166D02*
X11128969Y-21984642D01*
X11128969Y-21984642D02*
X11176588Y-22079880D01*
X11176588Y-22079880D02*
X11224207Y-22127500D01*
X11224207Y-22127500D02*
X11319445Y-22175119D01*
X11319445Y-22175119D02*
X11509921Y-22175119D01*
X11509921Y-22175119D02*
X11605159Y-22127500D01*
X11605159Y-22127500D02*
X11652778Y-22079880D01*
X11652778Y-22079880D02*
X11700397Y-21984642D01*
X11700397Y-21984642D02*
X11700397Y-21794166D01*
X11700397Y-21794166D02*
X11652778Y-21698928D01*
X11652778Y-21698928D02*
X11605159Y-21651309D01*
X11605159Y-21651309D02*
X11509921Y-21603690D01*
X8128969Y-33875119D02*
X7652779Y-33875119D01*
X7652779Y-33875119D02*
X7605160Y-34351309D01*
X7605160Y-34351309D02*
X7652779Y-34303690D01*
X7652779Y-34303690D02*
X7748017Y-34256071D01*
X7748017Y-34256071D02*
X7986112Y-34256071D01*
X7986112Y-34256071D02*
X8081350Y-34303690D01*
X8081350Y-34303690D02*
X8128969Y-34351309D01*
X8128969Y-34351309D02*
X8176588Y-34446547D01*
X8176588Y-34446547D02*
X8176588Y-34684642D01*
X8176588Y-34684642D02*
X8128969Y-34779880D01*
X8128969Y-34779880D02*
X8081350Y-34827500D01*
X8081350Y-34827500D02*
X7986112Y-34875119D01*
X7986112Y-34875119D02*
X7748017Y-34875119D01*
X7748017Y-34875119D02*
X7652779Y-34827500D01*
X7652779Y-34827500D02*
X7605160Y-34779880D01*
X8462303Y-33875119D02*
X8795636Y-34875119D01*
X8795636Y-34875119D02*
X9128969Y-33875119D01*
X18203982Y-26302738D02*
X18108744Y-26255119D01*
X18108744Y-26255119D02*
X17965887Y-26255119D01*
X17965887Y-26255119D02*
X17823030Y-26302738D01*
X17823030Y-26302738D02*
X17727792Y-26397976D01*
X17727792Y-26397976D02*
X17680173Y-26493214D01*
X17680173Y-26493214D02*
X17632554Y-26683690D01*
X17632554Y-26683690D02*
X17632554Y-26826547D01*
X17632554Y-26826547D02*
X17680173Y-27017023D01*
X17680173Y-27017023D02*
X17727792Y-27112261D01*
X17727792Y-27112261D02*
X17823030Y-27207500D01*
X17823030Y-27207500D02*
X17965887Y-27255119D01*
X17965887Y-27255119D02*
X18061125Y-27255119D01*
X18061125Y-27255119D02*
X18203982Y-27207500D01*
X18203982Y-27207500D02*
X18251601Y-27159880D01*
X18251601Y-27159880D02*
X18251601Y-26826547D01*
X18251601Y-26826547D02*
X18061125Y-26826547D01*
X18680173Y-27255119D02*
X18680173Y-26255119D01*
X18680173Y-26255119D02*
X19061125Y-26255119D01*
X19061125Y-26255119D02*
X19156363Y-26302738D01*
X19156363Y-26302738D02*
X19203982Y-26350357D01*
X19203982Y-26350357D02*
X19251601Y-26445595D01*
X19251601Y-26445595D02*
X19251601Y-26588452D01*
X19251601Y-26588452D02*
X19203982Y-26683690D01*
X19203982Y-26683690D02*
X19156363Y-26731309D01*
X19156363Y-26731309D02*
X19061125Y-26778928D01*
X19061125Y-26778928D02*
X18680173Y-26778928D01*
X19680173Y-27255119D02*
X19680173Y-26255119D01*
X20346839Y-26255119D02*
X20537315Y-26255119D01*
X20537315Y-26255119D02*
X20632553Y-26302738D01*
X20632553Y-26302738D02*
X20727791Y-26397976D01*
X20727791Y-26397976D02*
X20775410Y-26588452D01*
X20775410Y-26588452D02*
X20775410Y-26921785D01*
X20775410Y-26921785D02*
X20727791Y-27112261D01*
X20727791Y-27112261D02*
X20632553Y-27207500D01*
X20632553Y-27207500D02*
X20537315Y-27255119D01*
X20537315Y-27255119D02*
X20346839Y-27255119D01*
X20346839Y-27255119D02*
X20251601Y-27207500D01*
X20251601Y-27207500D02*
X20156363Y-27112261D01*
X20156363Y-27112261D02*
X20108744Y-26921785D01*
X20108744Y-26921785D02*
X20108744Y-26588452D01*
X20108744Y-26588452D02*
X20156363Y-26397976D01*
X20156363Y-26397976D02*
X20251601Y-26302738D01*
X20251601Y-26302738D02*
X20346839Y-26255119D01*
X21251601Y-27255119D02*
X21442077Y-27255119D01*
X21442077Y-27255119D02*
X21537315Y-27207500D01*
X21537315Y-27207500D02*
X21584934Y-27159880D01*
X21584934Y-27159880D02*
X21680172Y-27017023D01*
X21680172Y-27017023D02*
X21727791Y-26826547D01*
X21727791Y-26826547D02*
X21727791Y-26445595D01*
X21727791Y-26445595D02*
X21680172Y-26350357D01*
X21680172Y-26350357D02*
X21632553Y-26302738D01*
X21632553Y-26302738D02*
X21537315Y-26255119D01*
X21537315Y-26255119D02*
X21346839Y-26255119D01*
X21346839Y-26255119D02*
X21251601Y-26302738D01*
X21251601Y-26302738D02*
X21203982Y-26350357D01*
X21203982Y-26350357D02*
X21156363Y-26445595D01*
X21156363Y-26445595D02*
X21156363Y-26683690D01*
X21156363Y-26683690D02*
X21203982Y-26778928D01*
X21203982Y-26778928D02*
X21251601Y-26826547D01*
X21251601Y-26826547D02*
X21346839Y-26874166D01*
X21346839Y-26874166D02*
X21537315Y-26874166D01*
X21537315Y-26874166D02*
X21632553Y-26826547D01*
X21632553Y-26826547D02*
X21680172Y-26778928D01*
X21680172Y-26778928D02*
X21727791Y-26683690D01*
X22013506Y-26874166D02*
X22061125Y-26826547D01*
X22061125Y-26826547D02*
X22156363Y-26778928D01*
X22156363Y-26778928D02*
X22346839Y-26874166D01*
X22346839Y-26874166D02*
X22442077Y-26826547D01*
X22442077Y-26826547D02*
X22489696Y-26778928D01*
X23584934Y-26207500D02*
X22727792Y-27493214D01*
X24251601Y-26731309D02*
X24394458Y-26778928D01*
X24394458Y-26778928D02*
X24442077Y-26826547D01*
X24442077Y-26826547D02*
X24489696Y-26921785D01*
X24489696Y-26921785D02*
X24489696Y-27064642D01*
X24489696Y-27064642D02*
X24442077Y-27159880D01*
X24442077Y-27159880D02*
X24394458Y-27207500D01*
X24394458Y-27207500D02*
X24299220Y-27255119D01*
X24299220Y-27255119D02*
X23918268Y-27255119D01*
X23918268Y-27255119D02*
X23918268Y-26255119D01*
X23918268Y-26255119D02*
X24251601Y-26255119D01*
X24251601Y-26255119D02*
X24346839Y-26302738D01*
X24346839Y-26302738D02*
X24394458Y-26350357D01*
X24394458Y-26350357D02*
X24442077Y-26445595D01*
X24442077Y-26445595D02*
X24442077Y-26540833D01*
X24442077Y-26540833D02*
X24394458Y-26636071D01*
X24394458Y-26636071D02*
X24346839Y-26683690D01*
X24346839Y-26683690D02*
X24251601Y-26731309D01*
X24251601Y-26731309D02*
X23918268Y-26731309D01*
X25108744Y-26255119D02*
X25299220Y-26255119D01*
X25299220Y-26255119D02*
X25394458Y-26302738D01*
X25394458Y-26302738D02*
X25489696Y-26397976D01*
X25489696Y-26397976D02*
X25537315Y-26588452D01*
X25537315Y-26588452D02*
X25537315Y-26921785D01*
X25537315Y-26921785D02*
X25489696Y-27112261D01*
X25489696Y-27112261D02*
X25394458Y-27207500D01*
X25394458Y-27207500D02*
X25299220Y-27255119D01*
X25299220Y-27255119D02*
X25108744Y-27255119D01*
X25108744Y-27255119D02*
X25013506Y-27207500D01*
X25013506Y-27207500D02*
X24918268Y-27112261D01*
X24918268Y-27112261D02*
X24870649Y-26921785D01*
X24870649Y-26921785D02*
X24870649Y-26588452D01*
X24870649Y-26588452D02*
X24918268Y-26397976D01*
X24918268Y-26397976D02*
X25013506Y-26302738D01*
X25013506Y-26302738D02*
X25108744Y-26255119D01*
X26156363Y-26255119D02*
X26346839Y-26255119D01*
X26346839Y-26255119D02*
X26442077Y-26302738D01*
X26442077Y-26302738D02*
X26537315Y-26397976D01*
X26537315Y-26397976D02*
X26584934Y-26588452D01*
X26584934Y-26588452D02*
X26584934Y-26921785D01*
X26584934Y-26921785D02*
X26537315Y-27112261D01*
X26537315Y-27112261D02*
X26442077Y-27207500D01*
X26442077Y-27207500D02*
X26346839Y-27255119D01*
X26346839Y-27255119D02*
X26156363Y-27255119D01*
X26156363Y-27255119D02*
X26061125Y-27207500D01*
X26061125Y-27207500D02*
X25965887Y-27112261D01*
X25965887Y-27112261D02*
X25918268Y-26921785D01*
X25918268Y-26921785D02*
X25918268Y-26588452D01*
X25918268Y-26588452D02*
X25965887Y-26397976D01*
X25965887Y-26397976D02*
X26061125Y-26302738D01*
X26061125Y-26302738D02*
X26156363Y-26255119D01*
X26870649Y-26255119D02*
X27442077Y-26255119D01*
X27156363Y-27255119D02*
X27156363Y-26255119D01*
X22870649Y-23762738D02*
X22775411Y-23715119D01*
X22775411Y-23715119D02*
X22632554Y-23715119D01*
X22632554Y-23715119D02*
X22489697Y-23762738D01*
X22489697Y-23762738D02*
X22394459Y-23857976D01*
X22394459Y-23857976D02*
X22346840Y-23953214D01*
X22346840Y-23953214D02*
X22299221Y-24143690D01*
X22299221Y-24143690D02*
X22299221Y-24286547D01*
X22299221Y-24286547D02*
X22346840Y-24477023D01*
X22346840Y-24477023D02*
X22394459Y-24572261D01*
X22394459Y-24572261D02*
X22489697Y-24667500D01*
X22489697Y-24667500D02*
X22632554Y-24715119D01*
X22632554Y-24715119D02*
X22727792Y-24715119D01*
X22727792Y-24715119D02*
X22870649Y-24667500D01*
X22870649Y-24667500D02*
X22918268Y-24619880D01*
X22918268Y-24619880D02*
X22918268Y-24286547D01*
X22918268Y-24286547D02*
X22727792Y-24286547D01*
X23346840Y-24715119D02*
X23346840Y-23715119D01*
X23346840Y-23715119D02*
X23727792Y-23715119D01*
X23727792Y-23715119D02*
X23823030Y-23762738D01*
X23823030Y-23762738D02*
X23870649Y-23810357D01*
X23870649Y-23810357D02*
X23918268Y-23905595D01*
X23918268Y-23905595D02*
X23918268Y-24048452D01*
X23918268Y-24048452D02*
X23870649Y-24143690D01*
X23870649Y-24143690D02*
X23823030Y-24191309D01*
X23823030Y-24191309D02*
X23727792Y-24238928D01*
X23727792Y-24238928D02*
X23346840Y-24238928D01*
X24346840Y-24715119D02*
X24346840Y-23715119D01*
X25013506Y-23715119D02*
X25203982Y-23715119D01*
X25203982Y-23715119D02*
X25299220Y-23762738D01*
X25299220Y-23762738D02*
X25394458Y-23857976D01*
X25394458Y-23857976D02*
X25442077Y-24048452D01*
X25442077Y-24048452D02*
X25442077Y-24381785D01*
X25442077Y-24381785D02*
X25394458Y-24572261D01*
X25394458Y-24572261D02*
X25299220Y-24667500D01*
X25299220Y-24667500D02*
X25203982Y-24715119D01*
X25203982Y-24715119D02*
X25013506Y-24715119D01*
X25013506Y-24715119D02*
X24918268Y-24667500D01*
X24918268Y-24667500D02*
X24823030Y-24572261D01*
X24823030Y-24572261D02*
X24775411Y-24381785D01*
X24775411Y-24381785D02*
X24775411Y-24048452D01*
X24775411Y-24048452D02*
X24823030Y-23857976D01*
X24823030Y-23857976D02*
X24918268Y-23762738D01*
X24918268Y-23762738D02*
X25013506Y-23715119D01*
X26394458Y-24715119D02*
X25823030Y-24715119D01*
X26108744Y-24715119D02*
X26108744Y-23715119D01*
X26108744Y-23715119D02*
X26013506Y-23857976D01*
X26013506Y-23857976D02*
X25918268Y-23953214D01*
X25918268Y-23953214D02*
X25823030Y-24000833D01*
X27299220Y-23715119D02*
X26823030Y-23715119D01*
X26823030Y-23715119D02*
X26775411Y-24191309D01*
X26775411Y-24191309D02*
X26823030Y-24143690D01*
X26823030Y-24143690D02*
X26918268Y-24096071D01*
X26918268Y-24096071D02*
X27156363Y-24096071D01*
X27156363Y-24096071D02*
X27251601Y-24143690D01*
X27251601Y-24143690D02*
X27299220Y-24191309D01*
X27299220Y-24191309D02*
X27346839Y-24286547D01*
X27346839Y-24286547D02*
X27346839Y-24524642D01*
X27346839Y-24524642D02*
X27299220Y-24619880D01*
X27299220Y-24619880D02*
X27251601Y-24667500D01*
X27251601Y-24667500D02*
X27156363Y-24715119D01*
X27156363Y-24715119D02*
X26918268Y-24715119D01*
X26918268Y-24715119D02*
X26823030Y-24667500D01*
X26823030Y-24667500D02*
X26775411Y-24619880D01*
X25251601Y-902738D02*
X25156363Y-855119D01*
X25156363Y-855119D02*
X25013506Y-855119D01*
X25013506Y-855119D02*
X24870649Y-902738D01*
X24870649Y-902738D02*
X24775411Y-997976D01*
X24775411Y-997976D02*
X24727792Y-1093214D01*
X24727792Y-1093214D02*
X24680173Y-1283690D01*
X24680173Y-1283690D02*
X24680173Y-1426547D01*
X24680173Y-1426547D02*
X24727792Y-1617023D01*
X24727792Y-1617023D02*
X24775411Y-1712261D01*
X24775411Y-1712261D02*
X24870649Y-1807500D01*
X24870649Y-1807500D02*
X25013506Y-1855119D01*
X25013506Y-1855119D02*
X25108744Y-1855119D01*
X25108744Y-1855119D02*
X25251601Y-1807500D01*
X25251601Y-1807500D02*
X25299220Y-1759880D01*
X25299220Y-1759880D02*
X25299220Y-1426547D01*
X25299220Y-1426547D02*
X25108744Y-1426547D01*
X25727792Y-1855119D02*
X25727792Y-855119D01*
X25727792Y-855119D02*
X26299220Y-1855119D01*
X26299220Y-1855119D02*
X26299220Y-855119D01*
X26775411Y-1855119D02*
X26775411Y-855119D01*
X26775411Y-855119D02*
X27013506Y-855119D01*
X27013506Y-855119D02*
X27156363Y-902738D01*
X27156363Y-902738D02*
X27251601Y-997976D01*
X27251601Y-997976D02*
X27299220Y-1093214D01*
X27299220Y-1093214D02*
X27346839Y-1283690D01*
X27346839Y-1283690D02*
X27346839Y-1426547D01*
X27346839Y-1426547D02*
X27299220Y-1617023D01*
X27299220Y-1617023D02*
X27251601Y-1712261D01*
X27251601Y-1712261D02*
X27156363Y-1807500D01*
X27156363Y-1807500D02*
X27013506Y-1855119D01*
X27013506Y-1855119D02*
X26775411Y-1855119D01*
X8176588Y-5982738D02*
X8081350Y-5935119D01*
X8081350Y-5935119D02*
X7938493Y-5935119D01*
X7938493Y-5935119D02*
X7795636Y-5982738D01*
X7795636Y-5982738D02*
X7700398Y-6077976D01*
X7700398Y-6077976D02*
X7652779Y-6173214D01*
X7652779Y-6173214D02*
X7605160Y-6363690D01*
X7605160Y-6363690D02*
X7605160Y-6506547D01*
X7605160Y-6506547D02*
X7652779Y-6697023D01*
X7652779Y-6697023D02*
X7700398Y-6792261D01*
X7700398Y-6792261D02*
X7795636Y-6887500D01*
X7795636Y-6887500D02*
X7938493Y-6935119D01*
X7938493Y-6935119D02*
X8033731Y-6935119D01*
X8033731Y-6935119D02*
X8176588Y-6887500D01*
X8176588Y-6887500D02*
X8224207Y-6839880D01*
X8224207Y-6839880D02*
X8224207Y-6506547D01*
X8224207Y-6506547D02*
X8033731Y-6506547D01*
X8652779Y-6935119D02*
X8652779Y-5935119D01*
X8652779Y-5935119D02*
X9033731Y-5935119D01*
X9033731Y-5935119D02*
X9128969Y-5982738D01*
X9128969Y-5982738D02*
X9176588Y-6030357D01*
X9176588Y-6030357D02*
X9224207Y-6125595D01*
X9224207Y-6125595D02*
X9224207Y-6268452D01*
X9224207Y-6268452D02*
X9176588Y-6363690D01*
X9176588Y-6363690D02*
X9128969Y-6411309D01*
X9128969Y-6411309D02*
X9033731Y-6458928D01*
X9033731Y-6458928D02*
X8652779Y-6458928D01*
X9652779Y-6935119D02*
X9652779Y-5935119D01*
X10319445Y-5935119D02*
X10509921Y-5935119D01*
X10509921Y-5935119D02*
X10605159Y-5982738D01*
X10605159Y-5982738D02*
X10700397Y-6077976D01*
X10700397Y-6077976D02*
X10748016Y-6268452D01*
X10748016Y-6268452D02*
X10748016Y-6601785D01*
X10748016Y-6601785D02*
X10700397Y-6792261D01*
X10700397Y-6792261D02*
X10605159Y-6887500D01*
X10605159Y-6887500D02*
X10509921Y-6935119D01*
X10509921Y-6935119D02*
X10319445Y-6935119D01*
X10319445Y-6935119D02*
X10224207Y-6887500D01*
X10224207Y-6887500D02*
X10128969Y-6792261D01*
X10128969Y-6792261D02*
X10081350Y-6601785D01*
X10081350Y-6601785D02*
X10081350Y-6268452D01*
X10081350Y-6268452D02*
X10128969Y-6077976D01*
X10128969Y-6077976D02*
X10224207Y-5982738D01*
X10224207Y-5982738D02*
X10319445Y-5935119D01*
X11128969Y-6030357D02*
X11176588Y-5982738D01*
X11176588Y-5982738D02*
X11271826Y-5935119D01*
X11271826Y-5935119D02*
X11509921Y-5935119D01*
X11509921Y-5935119D02*
X11605159Y-5982738D01*
X11605159Y-5982738D02*
X11652778Y-6030357D01*
X11652778Y-6030357D02*
X11700397Y-6125595D01*
X11700397Y-6125595D02*
X11700397Y-6220833D01*
X11700397Y-6220833D02*
X11652778Y-6363690D01*
X11652778Y-6363690D02*
X11081350Y-6935119D01*
X11081350Y-6935119D02*
X11700397Y-6935119D01*
X11986112Y-6554166D02*
X12033731Y-6506547D01*
X12033731Y-6506547D02*
X12128969Y-6458928D01*
X12128969Y-6458928D02*
X12319445Y-6554166D01*
X12319445Y-6554166D02*
X12414683Y-6506547D01*
X12414683Y-6506547D02*
X12462302Y-6458928D01*
X8176588Y-26302738D02*
X8081350Y-26255119D01*
X8081350Y-26255119D02*
X7938493Y-26255119D01*
X7938493Y-26255119D02*
X7795636Y-26302738D01*
X7795636Y-26302738D02*
X7700398Y-26397976D01*
X7700398Y-26397976D02*
X7652779Y-26493214D01*
X7652779Y-26493214D02*
X7605160Y-26683690D01*
X7605160Y-26683690D02*
X7605160Y-26826547D01*
X7605160Y-26826547D02*
X7652779Y-27017023D01*
X7652779Y-27017023D02*
X7700398Y-27112261D01*
X7700398Y-27112261D02*
X7795636Y-27207500D01*
X7795636Y-27207500D02*
X7938493Y-27255119D01*
X7938493Y-27255119D02*
X8033731Y-27255119D01*
X8033731Y-27255119D02*
X8176588Y-27207500D01*
X8176588Y-27207500D02*
X8224207Y-27159880D01*
X8224207Y-27159880D02*
X8224207Y-26826547D01*
X8224207Y-26826547D02*
X8033731Y-26826547D01*
X8652779Y-27255119D02*
X8652779Y-26255119D01*
X8652779Y-26255119D02*
X9033731Y-26255119D01*
X9033731Y-26255119D02*
X9128969Y-26302738D01*
X9128969Y-26302738D02*
X9176588Y-26350357D01*
X9176588Y-26350357D02*
X9224207Y-26445595D01*
X9224207Y-26445595D02*
X9224207Y-26588452D01*
X9224207Y-26588452D02*
X9176588Y-26683690D01*
X9176588Y-26683690D02*
X9128969Y-26731309D01*
X9128969Y-26731309D02*
X9033731Y-26778928D01*
X9033731Y-26778928D02*
X8652779Y-26778928D01*
X9652779Y-27255119D02*
X9652779Y-26255119D01*
X10319445Y-26255119D02*
X10509921Y-26255119D01*
X10509921Y-26255119D02*
X10605159Y-26302738D01*
X10605159Y-26302738D02*
X10700397Y-26397976D01*
X10700397Y-26397976D02*
X10748016Y-26588452D01*
X10748016Y-26588452D02*
X10748016Y-26921785D01*
X10748016Y-26921785D02*
X10700397Y-27112261D01*
X10700397Y-27112261D02*
X10605159Y-27207500D01*
X10605159Y-27207500D02*
X10509921Y-27255119D01*
X10509921Y-27255119D02*
X10319445Y-27255119D01*
X10319445Y-27255119D02*
X10224207Y-27207500D01*
X10224207Y-27207500D02*
X10128969Y-27112261D01*
X10128969Y-27112261D02*
X10081350Y-26921785D01*
X10081350Y-26921785D02*
X10081350Y-26588452D01*
X10081350Y-26588452D02*
X10128969Y-26397976D01*
X10128969Y-26397976D02*
X10224207Y-26302738D01*
X10224207Y-26302738D02*
X10319445Y-26255119D01*
X11081350Y-26255119D02*
X11748016Y-26255119D01*
X11748016Y-26255119D02*
X11319445Y-27255119D01*
X22870649Y-21222738D02*
X22775411Y-21175119D01*
X22775411Y-21175119D02*
X22632554Y-21175119D01*
X22632554Y-21175119D02*
X22489697Y-21222738D01*
X22489697Y-21222738D02*
X22394459Y-21317976D01*
X22394459Y-21317976D02*
X22346840Y-21413214D01*
X22346840Y-21413214D02*
X22299221Y-21603690D01*
X22299221Y-21603690D02*
X22299221Y-21746547D01*
X22299221Y-21746547D02*
X22346840Y-21937023D01*
X22346840Y-21937023D02*
X22394459Y-22032261D01*
X22394459Y-22032261D02*
X22489697Y-22127500D01*
X22489697Y-22127500D02*
X22632554Y-22175119D01*
X22632554Y-22175119D02*
X22727792Y-22175119D01*
X22727792Y-22175119D02*
X22870649Y-22127500D01*
X22870649Y-22127500D02*
X22918268Y-22079880D01*
X22918268Y-22079880D02*
X22918268Y-21746547D01*
X22918268Y-21746547D02*
X22727792Y-21746547D01*
X23346840Y-22175119D02*
X23346840Y-21175119D01*
X23346840Y-21175119D02*
X23727792Y-21175119D01*
X23727792Y-21175119D02*
X23823030Y-21222738D01*
X23823030Y-21222738D02*
X23870649Y-21270357D01*
X23870649Y-21270357D02*
X23918268Y-21365595D01*
X23918268Y-21365595D02*
X23918268Y-21508452D01*
X23918268Y-21508452D02*
X23870649Y-21603690D01*
X23870649Y-21603690D02*
X23823030Y-21651309D01*
X23823030Y-21651309D02*
X23727792Y-21698928D01*
X23727792Y-21698928D02*
X23346840Y-21698928D01*
X24346840Y-22175119D02*
X24346840Y-21175119D01*
X25013506Y-21175119D02*
X25203982Y-21175119D01*
X25203982Y-21175119D02*
X25299220Y-21222738D01*
X25299220Y-21222738D02*
X25394458Y-21317976D01*
X25394458Y-21317976D02*
X25442077Y-21508452D01*
X25442077Y-21508452D02*
X25442077Y-21841785D01*
X25442077Y-21841785D02*
X25394458Y-22032261D01*
X25394458Y-22032261D02*
X25299220Y-22127500D01*
X25299220Y-22127500D02*
X25203982Y-22175119D01*
X25203982Y-22175119D02*
X25013506Y-22175119D01*
X25013506Y-22175119D02*
X24918268Y-22127500D01*
X24918268Y-22127500D02*
X24823030Y-22032261D01*
X24823030Y-22032261D02*
X24775411Y-21841785D01*
X24775411Y-21841785D02*
X24775411Y-21508452D01*
X24775411Y-21508452D02*
X24823030Y-21317976D01*
X24823030Y-21317976D02*
X24918268Y-21222738D01*
X24918268Y-21222738D02*
X25013506Y-21175119D01*
X26394458Y-22175119D02*
X25823030Y-22175119D01*
X26108744Y-22175119D02*
X26108744Y-21175119D01*
X26108744Y-21175119D02*
X26013506Y-21317976D01*
X26013506Y-21317976D02*
X25918268Y-21413214D01*
X25918268Y-21413214D02*
X25823030Y-21460833D01*
X26965887Y-21603690D02*
X26870649Y-21556071D01*
X26870649Y-21556071D02*
X26823030Y-21508452D01*
X26823030Y-21508452D02*
X26775411Y-21413214D01*
X26775411Y-21413214D02*
X26775411Y-21365595D01*
X26775411Y-21365595D02*
X26823030Y-21270357D01*
X26823030Y-21270357D02*
X26870649Y-21222738D01*
X26870649Y-21222738D02*
X26965887Y-21175119D01*
X26965887Y-21175119D02*
X27156363Y-21175119D01*
X27156363Y-21175119D02*
X27251601Y-21222738D01*
X27251601Y-21222738D02*
X27299220Y-21270357D01*
X27299220Y-21270357D02*
X27346839Y-21365595D01*
X27346839Y-21365595D02*
X27346839Y-21413214D01*
X27346839Y-21413214D02*
X27299220Y-21508452D01*
X27299220Y-21508452D02*
X27251601Y-21556071D01*
X27251601Y-21556071D02*
X27156363Y-21603690D01*
X27156363Y-21603690D02*
X26965887Y-21603690D01*
X26965887Y-21603690D02*
X26870649Y-21651309D01*
X26870649Y-21651309D02*
X26823030Y-21698928D01*
X26823030Y-21698928D02*
X26775411Y-21794166D01*
X26775411Y-21794166D02*
X26775411Y-21984642D01*
X26775411Y-21984642D02*
X26823030Y-22079880D01*
X26823030Y-22079880D02*
X26870649Y-22127500D01*
X26870649Y-22127500D02*
X26965887Y-22175119D01*
X26965887Y-22175119D02*
X27156363Y-22175119D01*
X27156363Y-22175119D02*
X27251601Y-22127500D01*
X27251601Y-22127500D02*
X27299220Y-22079880D01*
X27299220Y-22079880D02*
X27346839Y-21984642D01*
X27346839Y-21984642D02*
X27346839Y-21794166D01*
X27346839Y-21794166D02*
X27299220Y-21698928D01*
X27299220Y-21698928D02*
X27251601Y-21651309D01*
X27251601Y-21651309D02*
X27156363Y-21603690D01*
X22870649Y-18682738D02*
X22775411Y-18635119D01*
X22775411Y-18635119D02*
X22632554Y-18635119D01*
X22632554Y-18635119D02*
X22489697Y-18682738D01*
X22489697Y-18682738D02*
X22394459Y-18777976D01*
X22394459Y-18777976D02*
X22346840Y-18873214D01*
X22346840Y-18873214D02*
X22299221Y-19063690D01*
X22299221Y-19063690D02*
X22299221Y-19206547D01*
X22299221Y-19206547D02*
X22346840Y-19397023D01*
X22346840Y-19397023D02*
X22394459Y-19492261D01*
X22394459Y-19492261D02*
X22489697Y-19587500D01*
X22489697Y-19587500D02*
X22632554Y-19635119D01*
X22632554Y-19635119D02*
X22727792Y-19635119D01*
X22727792Y-19635119D02*
X22870649Y-19587500D01*
X22870649Y-19587500D02*
X22918268Y-19539880D01*
X22918268Y-19539880D02*
X22918268Y-19206547D01*
X22918268Y-19206547D02*
X22727792Y-19206547D01*
X23346840Y-19635119D02*
X23346840Y-18635119D01*
X23346840Y-18635119D02*
X23727792Y-18635119D01*
X23727792Y-18635119D02*
X23823030Y-18682738D01*
X23823030Y-18682738D02*
X23870649Y-18730357D01*
X23870649Y-18730357D02*
X23918268Y-18825595D01*
X23918268Y-18825595D02*
X23918268Y-18968452D01*
X23918268Y-18968452D02*
X23870649Y-19063690D01*
X23870649Y-19063690D02*
X23823030Y-19111309D01*
X23823030Y-19111309D02*
X23727792Y-19158928D01*
X23727792Y-19158928D02*
X23346840Y-19158928D01*
X24346840Y-19635119D02*
X24346840Y-18635119D01*
X25013506Y-18635119D02*
X25203982Y-18635119D01*
X25203982Y-18635119D02*
X25299220Y-18682738D01*
X25299220Y-18682738D02*
X25394458Y-18777976D01*
X25394458Y-18777976D02*
X25442077Y-18968452D01*
X25442077Y-18968452D02*
X25442077Y-19301785D01*
X25442077Y-19301785D02*
X25394458Y-19492261D01*
X25394458Y-19492261D02*
X25299220Y-19587500D01*
X25299220Y-19587500D02*
X25203982Y-19635119D01*
X25203982Y-19635119D02*
X25013506Y-19635119D01*
X25013506Y-19635119D02*
X24918268Y-19587500D01*
X24918268Y-19587500D02*
X24823030Y-19492261D01*
X24823030Y-19492261D02*
X24775411Y-19301785D01*
X24775411Y-19301785D02*
X24775411Y-18968452D01*
X24775411Y-18968452D02*
X24823030Y-18777976D01*
X24823030Y-18777976D02*
X24918268Y-18682738D01*
X24918268Y-18682738D02*
X25013506Y-18635119D01*
X26394458Y-19635119D02*
X25823030Y-19635119D01*
X26108744Y-19635119D02*
X26108744Y-18635119D01*
X26108744Y-18635119D02*
X26013506Y-18777976D01*
X26013506Y-18777976D02*
X25918268Y-18873214D01*
X25918268Y-18873214D02*
X25823030Y-18920833D01*
X26870649Y-19635119D02*
X27061125Y-19635119D01*
X27061125Y-19635119D02*
X27156363Y-19587500D01*
X27156363Y-19587500D02*
X27203982Y-19539880D01*
X27203982Y-19539880D02*
X27299220Y-19397023D01*
X27299220Y-19397023D02*
X27346839Y-19206547D01*
X27346839Y-19206547D02*
X27346839Y-18825595D01*
X27346839Y-18825595D02*
X27299220Y-18730357D01*
X27299220Y-18730357D02*
X27251601Y-18682738D01*
X27251601Y-18682738D02*
X27156363Y-18635119D01*
X27156363Y-18635119D02*
X26965887Y-18635119D01*
X26965887Y-18635119D02*
X26870649Y-18682738D01*
X26870649Y-18682738D02*
X26823030Y-18730357D01*
X26823030Y-18730357D02*
X26775411Y-18825595D01*
X26775411Y-18825595D02*
X26775411Y-19063690D01*
X26775411Y-19063690D02*
X26823030Y-19158928D01*
X26823030Y-19158928D02*
X26870649Y-19206547D01*
X26870649Y-19206547D02*
X26965887Y-19254166D01*
X26965887Y-19254166D02*
X27156363Y-19254166D01*
X27156363Y-19254166D02*
X27251601Y-19206547D01*
X27251601Y-19206547D02*
X27299220Y-19158928D01*
X27299220Y-19158928D02*
X27346839Y-19063690D01*
X7547921Y-3871309D02*
X7881254Y-3871309D01*
X8024111Y-4395119D02*
X7547921Y-4395119D01*
X7547921Y-4395119D02*
X7547921Y-3395119D01*
X7547921Y-3395119D02*
X8024111Y-3395119D01*
X8452683Y-4395119D02*
X8452683Y-3395119D01*
X8452683Y-3395119D02*
X9024111Y-4395119D01*
X9024111Y-4395119D02*
X9024111Y-3395119D01*
X10214587Y-3347500D02*
X9357445Y-4633214D01*
X11119349Y-4395119D02*
X10786016Y-3918928D01*
X10547921Y-4395119D02*
X10547921Y-3395119D01*
X10547921Y-3395119D02*
X10928873Y-3395119D01*
X10928873Y-3395119D02*
X11024111Y-3442738D01*
X11024111Y-3442738D02*
X11071730Y-3490357D01*
X11071730Y-3490357D02*
X11119349Y-3585595D01*
X11119349Y-3585595D02*
X11119349Y-3728452D01*
X11119349Y-3728452D02*
X11071730Y-3823690D01*
X11071730Y-3823690D02*
X11024111Y-3871309D01*
X11024111Y-3871309D02*
X10928873Y-3918928D01*
X10928873Y-3918928D02*
X10547921Y-3918928D01*
X11547921Y-3871309D02*
X11881254Y-3871309D01*
X12024111Y-4395119D02*
X11547921Y-4395119D01*
X11547921Y-4395119D02*
X11547921Y-3395119D01*
X11547921Y-3395119D02*
X12024111Y-3395119D01*
X12405064Y-4347500D02*
X12547921Y-4395119D01*
X12547921Y-4395119D02*
X12786016Y-4395119D01*
X12786016Y-4395119D02*
X12881254Y-4347500D01*
X12881254Y-4347500D02*
X12928873Y-4299880D01*
X12928873Y-4299880D02*
X12976492Y-4204642D01*
X12976492Y-4204642D02*
X12976492Y-4109404D01*
X12976492Y-4109404D02*
X12928873Y-4014166D01*
X12928873Y-4014166D02*
X12881254Y-3966547D01*
X12881254Y-3966547D02*
X12786016Y-3918928D01*
X12786016Y-3918928D02*
X12595540Y-3871309D01*
X12595540Y-3871309D02*
X12500302Y-3823690D01*
X12500302Y-3823690D02*
X12452683Y-3776071D01*
X12452683Y-3776071D02*
X12405064Y-3680833D01*
X12405064Y-3680833D02*
X12405064Y-3585595D01*
X12405064Y-3585595D02*
X12452683Y-3490357D01*
X12452683Y-3490357D02*
X12500302Y-3442738D01*
X12500302Y-3442738D02*
X12595540Y-3395119D01*
X12595540Y-3395119D02*
X12833635Y-3395119D01*
X12833635Y-3395119D02*
X12976492Y-3442738D01*
X13405064Y-3871309D02*
X13738397Y-3871309D01*
X13881254Y-4395119D02*
X13405064Y-4395119D01*
X13405064Y-4395119D02*
X13405064Y-3395119D01*
X13405064Y-3395119D02*
X13881254Y-3395119D01*
X14166969Y-3395119D02*
X14738397Y-3395119D01*
X14452683Y-4395119D02*
X14452683Y-3395119D01*
X15108744Y-33922738D02*
X15013506Y-33875119D01*
X15013506Y-33875119D02*
X14870649Y-33875119D01*
X14870649Y-33875119D02*
X14727792Y-33922738D01*
X14727792Y-33922738D02*
X14632554Y-34017976D01*
X14632554Y-34017976D02*
X14584935Y-34113214D01*
X14584935Y-34113214D02*
X14537316Y-34303690D01*
X14537316Y-34303690D02*
X14537316Y-34446547D01*
X14537316Y-34446547D02*
X14584935Y-34637023D01*
X14584935Y-34637023D02*
X14632554Y-34732261D01*
X14632554Y-34732261D02*
X14727792Y-34827500D01*
X14727792Y-34827500D02*
X14870649Y-34875119D01*
X14870649Y-34875119D02*
X14965887Y-34875119D01*
X14965887Y-34875119D02*
X15108744Y-34827500D01*
X15108744Y-34827500D02*
X15156363Y-34779880D01*
X15156363Y-34779880D02*
X15156363Y-34446547D01*
X15156363Y-34446547D02*
X14965887Y-34446547D01*
X15584935Y-34875119D02*
X15584935Y-33875119D01*
X15584935Y-33875119D02*
X15965887Y-33875119D01*
X15965887Y-33875119D02*
X16061125Y-33922738D01*
X16061125Y-33922738D02*
X16108744Y-33970357D01*
X16108744Y-33970357D02*
X16156363Y-34065595D01*
X16156363Y-34065595D02*
X16156363Y-34208452D01*
X16156363Y-34208452D02*
X16108744Y-34303690D01*
X16108744Y-34303690D02*
X16061125Y-34351309D01*
X16061125Y-34351309D02*
X15965887Y-34398928D01*
X15965887Y-34398928D02*
X15584935Y-34398928D01*
X16584935Y-34875119D02*
X16584935Y-33875119D01*
X17251601Y-33875119D02*
X17442077Y-33875119D01*
X17442077Y-33875119D02*
X17537315Y-33922738D01*
X17537315Y-33922738D02*
X17632553Y-34017976D01*
X17632553Y-34017976D02*
X17680172Y-34208452D01*
X17680172Y-34208452D02*
X17680172Y-34541785D01*
X17680172Y-34541785D02*
X17632553Y-34732261D01*
X17632553Y-34732261D02*
X17537315Y-34827500D01*
X17537315Y-34827500D02*
X17442077Y-34875119D01*
X17442077Y-34875119D02*
X17251601Y-34875119D01*
X17251601Y-34875119D02*
X17156363Y-34827500D01*
X17156363Y-34827500D02*
X17061125Y-34732261D01*
X17061125Y-34732261D02*
X17013506Y-34541785D01*
X17013506Y-34541785D02*
X17013506Y-34208452D01*
X17013506Y-34208452D02*
X17061125Y-34017976D01*
X17061125Y-34017976D02*
X17156363Y-33922738D01*
X17156363Y-33922738D02*
X17251601Y-33875119D01*
X18632553Y-34875119D02*
X18061125Y-34875119D01*
X18346839Y-34875119D02*
X18346839Y-33875119D01*
X18346839Y-33875119D02*
X18251601Y-34017976D01*
X18251601Y-34017976D02*
X18156363Y-34113214D01*
X18156363Y-34113214D02*
X18061125Y-34160833D01*
X19013506Y-33970357D02*
X19061125Y-33922738D01*
X19061125Y-33922738D02*
X19156363Y-33875119D01*
X19156363Y-33875119D02*
X19394458Y-33875119D01*
X19394458Y-33875119D02*
X19489696Y-33922738D01*
X19489696Y-33922738D02*
X19537315Y-33970357D01*
X19537315Y-33970357D02*
X19584934Y-34065595D01*
X19584934Y-34065595D02*
X19584934Y-34160833D01*
X19584934Y-34160833D02*
X19537315Y-34303690D01*
X19537315Y-34303690D02*
X18965887Y-34875119D01*
X18965887Y-34875119D02*
X19584934Y-34875119D01*
X19870649Y-34494166D02*
X19918268Y-34446547D01*
X19918268Y-34446547D02*
X20013506Y-34398928D01*
X20013506Y-34398928D02*
X20203982Y-34494166D01*
X20203982Y-34494166D02*
X20299220Y-34446547D01*
X20299220Y-34446547D02*
X20346839Y-34398928D01*
X21442077Y-33827500D02*
X20584935Y-35113214D01*
X21775411Y-33875119D02*
X21775411Y-34684642D01*
X21775411Y-34684642D02*
X21823030Y-34779880D01*
X21823030Y-34779880D02*
X21870649Y-34827500D01*
X21870649Y-34827500D02*
X21965887Y-34875119D01*
X21965887Y-34875119D02*
X22156363Y-34875119D01*
X22156363Y-34875119D02*
X22251601Y-34827500D01*
X22251601Y-34827500D02*
X22299220Y-34779880D01*
X22299220Y-34779880D02*
X22346839Y-34684642D01*
X22346839Y-34684642D02*
X22346839Y-33875119D01*
X22775411Y-34827500D02*
X22918268Y-34875119D01*
X22918268Y-34875119D02*
X23156363Y-34875119D01*
X23156363Y-34875119D02*
X23251601Y-34827500D01*
X23251601Y-34827500D02*
X23299220Y-34779880D01*
X23299220Y-34779880D02*
X23346839Y-34684642D01*
X23346839Y-34684642D02*
X23346839Y-34589404D01*
X23346839Y-34589404D02*
X23299220Y-34494166D01*
X23299220Y-34494166D02*
X23251601Y-34446547D01*
X23251601Y-34446547D02*
X23156363Y-34398928D01*
X23156363Y-34398928D02*
X22965887Y-34351309D01*
X22965887Y-34351309D02*
X22870649Y-34303690D01*
X22870649Y-34303690D02*
X22823030Y-34256071D01*
X22823030Y-34256071D02*
X22775411Y-34160833D01*
X22775411Y-34160833D02*
X22775411Y-34065595D01*
X22775411Y-34065595D02*
X22823030Y-33970357D01*
X22823030Y-33970357D02*
X22870649Y-33922738D01*
X22870649Y-33922738D02*
X22965887Y-33875119D01*
X22965887Y-33875119D02*
X23203982Y-33875119D01*
X23203982Y-33875119D02*
X23346839Y-33922738D01*
X24108744Y-34351309D02*
X24251601Y-34398928D01*
X24251601Y-34398928D02*
X24299220Y-34446547D01*
X24299220Y-34446547D02*
X24346839Y-34541785D01*
X24346839Y-34541785D02*
X24346839Y-34684642D01*
X24346839Y-34684642D02*
X24299220Y-34779880D01*
X24299220Y-34779880D02*
X24251601Y-34827500D01*
X24251601Y-34827500D02*
X24156363Y-34875119D01*
X24156363Y-34875119D02*
X23775411Y-34875119D01*
X23775411Y-34875119D02*
X23775411Y-33875119D01*
X23775411Y-33875119D02*
X24108744Y-33875119D01*
X24108744Y-33875119D02*
X24203982Y-33922738D01*
X24203982Y-33922738D02*
X24251601Y-33970357D01*
X24251601Y-33970357D02*
X24299220Y-34065595D01*
X24299220Y-34065595D02*
X24299220Y-34160833D01*
X24299220Y-34160833D02*
X24251601Y-34256071D01*
X24251601Y-34256071D02*
X24203982Y-34303690D01*
X24203982Y-34303690D02*
X24108744Y-34351309D01*
X24108744Y-34351309D02*
X23775411Y-34351309D01*
X24537316Y-34970357D02*
X25299220Y-34970357D01*
X25537316Y-34875119D02*
X25537316Y-33875119D01*
X25537316Y-33875119D02*
X25775411Y-33875119D01*
X25775411Y-33875119D02*
X25918268Y-33922738D01*
X25918268Y-33922738D02*
X26013506Y-34017976D01*
X26013506Y-34017976D02*
X26061125Y-34113214D01*
X26061125Y-34113214D02*
X26108744Y-34303690D01*
X26108744Y-34303690D02*
X26108744Y-34446547D01*
X26108744Y-34446547D02*
X26061125Y-34637023D01*
X26061125Y-34637023D02*
X26013506Y-34732261D01*
X26013506Y-34732261D02*
X25918268Y-34827500D01*
X25918268Y-34827500D02*
X25775411Y-34875119D01*
X25775411Y-34875119D02*
X25537316Y-34875119D01*
X26537316Y-34494166D02*
X27299221Y-34494166D01*
X22870649Y-8522738D02*
X22775411Y-8475119D01*
X22775411Y-8475119D02*
X22632554Y-8475119D01*
X22632554Y-8475119D02*
X22489697Y-8522738D01*
X22489697Y-8522738D02*
X22394459Y-8617976D01*
X22394459Y-8617976D02*
X22346840Y-8713214D01*
X22346840Y-8713214D02*
X22299221Y-8903690D01*
X22299221Y-8903690D02*
X22299221Y-9046547D01*
X22299221Y-9046547D02*
X22346840Y-9237023D01*
X22346840Y-9237023D02*
X22394459Y-9332261D01*
X22394459Y-9332261D02*
X22489697Y-9427500D01*
X22489697Y-9427500D02*
X22632554Y-9475119D01*
X22632554Y-9475119D02*
X22727792Y-9475119D01*
X22727792Y-9475119D02*
X22870649Y-9427500D01*
X22870649Y-9427500D02*
X22918268Y-9379880D01*
X22918268Y-9379880D02*
X22918268Y-9046547D01*
X22918268Y-9046547D02*
X22727792Y-9046547D01*
X23346840Y-9475119D02*
X23346840Y-8475119D01*
X23346840Y-8475119D02*
X23727792Y-8475119D01*
X23727792Y-8475119D02*
X23823030Y-8522738D01*
X23823030Y-8522738D02*
X23870649Y-8570357D01*
X23870649Y-8570357D02*
X23918268Y-8665595D01*
X23918268Y-8665595D02*
X23918268Y-8808452D01*
X23918268Y-8808452D02*
X23870649Y-8903690D01*
X23870649Y-8903690D02*
X23823030Y-8951309D01*
X23823030Y-8951309D02*
X23727792Y-8998928D01*
X23727792Y-8998928D02*
X23346840Y-8998928D01*
X24346840Y-9475119D02*
X24346840Y-8475119D01*
X25013506Y-8475119D02*
X25203982Y-8475119D01*
X25203982Y-8475119D02*
X25299220Y-8522738D01*
X25299220Y-8522738D02*
X25394458Y-8617976D01*
X25394458Y-8617976D02*
X25442077Y-8808452D01*
X25442077Y-8808452D02*
X25442077Y-9141785D01*
X25442077Y-9141785D02*
X25394458Y-9332261D01*
X25394458Y-9332261D02*
X25299220Y-9427500D01*
X25299220Y-9427500D02*
X25203982Y-9475119D01*
X25203982Y-9475119D02*
X25013506Y-9475119D01*
X25013506Y-9475119D02*
X24918268Y-9427500D01*
X24918268Y-9427500D02*
X24823030Y-9332261D01*
X24823030Y-9332261D02*
X24775411Y-9141785D01*
X24775411Y-9141785D02*
X24775411Y-8808452D01*
X24775411Y-8808452D02*
X24823030Y-8617976D01*
X24823030Y-8617976D02*
X24918268Y-8522738D01*
X24918268Y-8522738D02*
X25013506Y-8475119D01*
X25823030Y-8570357D02*
X25870649Y-8522738D01*
X25870649Y-8522738D02*
X25965887Y-8475119D01*
X25965887Y-8475119D02*
X26203982Y-8475119D01*
X26203982Y-8475119D02*
X26299220Y-8522738D01*
X26299220Y-8522738D02*
X26346839Y-8570357D01*
X26346839Y-8570357D02*
X26394458Y-8665595D01*
X26394458Y-8665595D02*
X26394458Y-8760833D01*
X26394458Y-8760833D02*
X26346839Y-8903690D01*
X26346839Y-8903690D02*
X25775411Y-9475119D01*
X25775411Y-9475119D02*
X26394458Y-9475119D01*
X26727792Y-8475119D02*
X27346839Y-8475119D01*
X27346839Y-8475119D02*
X27013506Y-8856071D01*
X27013506Y-8856071D02*
X27156363Y-8856071D01*
X27156363Y-8856071D02*
X27251601Y-8903690D01*
X27251601Y-8903690D02*
X27299220Y-8951309D01*
X27299220Y-8951309D02*
X27346839Y-9046547D01*
X27346839Y-9046547D02*
X27346839Y-9284642D01*
X27346839Y-9284642D02*
X27299220Y-9379880D01*
X27299220Y-9379880D02*
X27251601Y-9427500D01*
X27251601Y-9427500D02*
X27156363Y-9475119D01*
X27156363Y-9475119D02*
X26870649Y-9475119D01*
X26870649Y-9475119D02*
X26775411Y-9427500D01*
X26775411Y-9427500D02*
X26727792Y-9379880D01*
X25251601Y-28842738D02*
X25156363Y-28795119D01*
X25156363Y-28795119D02*
X25013506Y-28795119D01*
X25013506Y-28795119D02*
X24870649Y-28842738D01*
X24870649Y-28842738D02*
X24775411Y-28937976D01*
X24775411Y-28937976D02*
X24727792Y-29033214D01*
X24727792Y-29033214D02*
X24680173Y-29223690D01*
X24680173Y-29223690D02*
X24680173Y-29366547D01*
X24680173Y-29366547D02*
X24727792Y-29557023D01*
X24727792Y-29557023D02*
X24775411Y-29652261D01*
X24775411Y-29652261D02*
X24870649Y-29747500D01*
X24870649Y-29747500D02*
X25013506Y-29795119D01*
X25013506Y-29795119D02*
X25108744Y-29795119D01*
X25108744Y-29795119D02*
X25251601Y-29747500D01*
X25251601Y-29747500D02*
X25299220Y-29699880D01*
X25299220Y-29699880D02*
X25299220Y-29366547D01*
X25299220Y-29366547D02*
X25108744Y-29366547D01*
X25727792Y-29795119D02*
X25727792Y-28795119D01*
X25727792Y-28795119D02*
X26299220Y-29795119D01*
X26299220Y-29795119D02*
X26299220Y-28795119D01*
X26775411Y-29795119D02*
X26775411Y-28795119D01*
X26775411Y-28795119D02*
X27013506Y-28795119D01*
X27013506Y-28795119D02*
X27156363Y-28842738D01*
X27156363Y-28842738D02*
X27251601Y-28937976D01*
X27251601Y-28937976D02*
X27299220Y-29033214D01*
X27299220Y-29033214D02*
X27346839Y-29223690D01*
X27346839Y-29223690D02*
X27346839Y-29366547D01*
X27346839Y-29366547D02*
X27299220Y-29557023D01*
X27299220Y-29557023D02*
X27251601Y-29652261D01*
X27251601Y-29652261D02*
X27156363Y-29747500D01*
X27156363Y-29747500D02*
X27013506Y-29795119D01*
X27013506Y-29795119D02*
X26775411Y-29795119D01*
X8176588Y-8522738D02*
X8081350Y-8475119D01*
X8081350Y-8475119D02*
X7938493Y-8475119D01*
X7938493Y-8475119D02*
X7795636Y-8522738D01*
X7795636Y-8522738D02*
X7700398Y-8617976D01*
X7700398Y-8617976D02*
X7652779Y-8713214D01*
X7652779Y-8713214D02*
X7605160Y-8903690D01*
X7605160Y-8903690D02*
X7605160Y-9046547D01*
X7605160Y-9046547D02*
X7652779Y-9237023D01*
X7652779Y-9237023D02*
X7700398Y-9332261D01*
X7700398Y-9332261D02*
X7795636Y-9427500D01*
X7795636Y-9427500D02*
X7938493Y-9475119D01*
X7938493Y-9475119D02*
X8033731Y-9475119D01*
X8033731Y-9475119D02*
X8176588Y-9427500D01*
X8176588Y-9427500D02*
X8224207Y-9379880D01*
X8224207Y-9379880D02*
X8224207Y-9046547D01*
X8224207Y-9046547D02*
X8033731Y-9046547D01*
X8652779Y-9475119D02*
X8652779Y-8475119D01*
X8652779Y-8475119D02*
X9033731Y-8475119D01*
X9033731Y-8475119D02*
X9128969Y-8522738D01*
X9128969Y-8522738D02*
X9176588Y-8570357D01*
X9176588Y-8570357D02*
X9224207Y-8665595D01*
X9224207Y-8665595D02*
X9224207Y-8808452D01*
X9224207Y-8808452D02*
X9176588Y-8903690D01*
X9176588Y-8903690D02*
X9128969Y-8951309D01*
X9128969Y-8951309D02*
X9033731Y-8998928D01*
X9033731Y-8998928D02*
X8652779Y-8998928D01*
X9652779Y-9475119D02*
X9652779Y-8475119D01*
X10319445Y-8475119D02*
X10509921Y-8475119D01*
X10509921Y-8475119D02*
X10605159Y-8522738D01*
X10605159Y-8522738D02*
X10700397Y-8617976D01*
X10700397Y-8617976D02*
X10748016Y-8808452D01*
X10748016Y-8808452D02*
X10748016Y-9141785D01*
X10748016Y-9141785D02*
X10700397Y-9332261D01*
X10700397Y-9332261D02*
X10605159Y-9427500D01*
X10605159Y-9427500D02*
X10509921Y-9475119D01*
X10509921Y-9475119D02*
X10319445Y-9475119D01*
X10319445Y-9475119D02*
X10224207Y-9427500D01*
X10224207Y-9427500D02*
X10128969Y-9332261D01*
X10128969Y-9332261D02*
X10081350Y-9141785D01*
X10081350Y-9141785D02*
X10081350Y-8808452D01*
X10081350Y-8808452D02*
X10128969Y-8617976D01*
X10128969Y-8617976D02*
X10224207Y-8522738D01*
X10224207Y-8522738D02*
X10319445Y-8475119D01*
X11081350Y-8475119D02*
X11700397Y-8475119D01*
X11700397Y-8475119D02*
X11367064Y-8856071D01*
X11367064Y-8856071D02*
X11509921Y-8856071D01*
X11509921Y-8856071D02*
X11605159Y-8903690D01*
X11605159Y-8903690D02*
X11652778Y-8951309D01*
X11652778Y-8951309D02*
X11700397Y-9046547D01*
X11700397Y-9046547D02*
X11700397Y-9284642D01*
X11700397Y-9284642D02*
X11652778Y-9379880D01*
X11652778Y-9379880D02*
X11605159Y-9427500D01*
X11605159Y-9427500D02*
X11509921Y-9475119D01*
X11509921Y-9475119D02*
X11224207Y-9475119D01*
X11224207Y-9475119D02*
X11128969Y-9427500D01*
X11128969Y-9427500D02*
X11081350Y-9379880D01*
X11986112Y-9094166D02*
X12033731Y-9046547D01*
X12033731Y-9046547D02*
X12128969Y-8998928D01*
X12128969Y-8998928D02*
X12319445Y-9094166D01*
X12319445Y-9094166D02*
X12414683Y-9046547D01*
X12414683Y-9046547D02*
X12462302Y-8998928D01*
X8176588Y-28842738D02*
X8081350Y-28795119D01*
X8081350Y-28795119D02*
X7938493Y-28795119D01*
X7938493Y-28795119D02*
X7795636Y-28842738D01*
X7795636Y-28842738D02*
X7700398Y-28937976D01*
X7700398Y-28937976D02*
X7652779Y-29033214D01*
X7652779Y-29033214D02*
X7605160Y-29223690D01*
X7605160Y-29223690D02*
X7605160Y-29366547D01*
X7605160Y-29366547D02*
X7652779Y-29557023D01*
X7652779Y-29557023D02*
X7700398Y-29652261D01*
X7700398Y-29652261D02*
X7795636Y-29747500D01*
X7795636Y-29747500D02*
X7938493Y-29795119D01*
X7938493Y-29795119D02*
X8033731Y-29795119D01*
X8033731Y-29795119D02*
X8176588Y-29747500D01*
X8176588Y-29747500D02*
X8224207Y-29699880D01*
X8224207Y-29699880D02*
X8224207Y-29366547D01*
X8224207Y-29366547D02*
X8033731Y-29366547D01*
X8652779Y-29795119D02*
X8652779Y-28795119D01*
X8652779Y-28795119D02*
X9033731Y-28795119D01*
X9033731Y-28795119D02*
X9128969Y-28842738D01*
X9128969Y-28842738D02*
X9176588Y-28890357D01*
X9176588Y-28890357D02*
X9224207Y-28985595D01*
X9224207Y-28985595D02*
X9224207Y-29128452D01*
X9224207Y-29128452D02*
X9176588Y-29223690D01*
X9176588Y-29223690D02*
X9128969Y-29271309D01*
X9128969Y-29271309D02*
X9033731Y-29318928D01*
X9033731Y-29318928D02*
X8652779Y-29318928D01*
X9652779Y-29795119D02*
X9652779Y-28795119D01*
X10319445Y-28795119D02*
X10509921Y-28795119D01*
X10509921Y-28795119D02*
X10605159Y-28842738D01*
X10605159Y-28842738D02*
X10700397Y-28937976D01*
X10700397Y-28937976D02*
X10748016Y-29128452D01*
X10748016Y-29128452D02*
X10748016Y-29461785D01*
X10748016Y-29461785D02*
X10700397Y-29652261D01*
X10700397Y-29652261D02*
X10605159Y-29747500D01*
X10605159Y-29747500D02*
X10509921Y-29795119D01*
X10509921Y-29795119D02*
X10319445Y-29795119D01*
X10319445Y-29795119D02*
X10224207Y-29747500D01*
X10224207Y-29747500D02*
X10128969Y-29652261D01*
X10128969Y-29652261D02*
X10081350Y-29461785D01*
X10081350Y-29461785D02*
X10081350Y-29128452D01*
X10081350Y-29128452D02*
X10128969Y-28937976D01*
X10128969Y-28937976D02*
X10224207Y-28842738D01*
X10224207Y-28842738D02*
X10319445Y-28795119D01*
X11700397Y-29795119D02*
X11128969Y-29795119D01*
X11414683Y-29795119D02*
X11414683Y-28795119D01*
X11414683Y-28795119D02*
X11319445Y-28937976D01*
X11319445Y-28937976D02*
X11224207Y-29033214D01*
X11224207Y-29033214D02*
X11128969Y-29080833D01*
X12557540Y-29128452D02*
X12557540Y-29795119D01*
X12319445Y-28747500D02*
X12081350Y-29461785D01*
X12081350Y-29461785D02*
X12700397Y-29461785D01*
X16394458Y-3442738D02*
X16299220Y-3395119D01*
X16299220Y-3395119D02*
X16156363Y-3395119D01*
X16156363Y-3395119D02*
X16013506Y-3442738D01*
X16013506Y-3442738D02*
X15918268Y-3537976D01*
X15918268Y-3537976D02*
X15870649Y-3633214D01*
X15870649Y-3633214D02*
X15823030Y-3823690D01*
X15823030Y-3823690D02*
X15823030Y-3966547D01*
X15823030Y-3966547D02*
X15870649Y-4157023D01*
X15870649Y-4157023D02*
X15918268Y-4252261D01*
X15918268Y-4252261D02*
X16013506Y-4347500D01*
X16013506Y-4347500D02*
X16156363Y-4395119D01*
X16156363Y-4395119D02*
X16251601Y-4395119D01*
X16251601Y-4395119D02*
X16394458Y-4347500D01*
X16394458Y-4347500D02*
X16442077Y-4299880D01*
X16442077Y-4299880D02*
X16442077Y-3966547D01*
X16442077Y-3966547D02*
X16251601Y-3966547D01*
X16870649Y-4395119D02*
X16870649Y-3395119D01*
X16870649Y-3395119D02*
X17251601Y-3395119D01*
X17251601Y-3395119D02*
X17346839Y-3442738D01*
X17346839Y-3442738D02*
X17394458Y-3490357D01*
X17394458Y-3490357D02*
X17442077Y-3585595D01*
X17442077Y-3585595D02*
X17442077Y-3728452D01*
X17442077Y-3728452D02*
X17394458Y-3823690D01*
X17394458Y-3823690D02*
X17346839Y-3871309D01*
X17346839Y-3871309D02*
X17251601Y-3918928D01*
X17251601Y-3918928D02*
X16870649Y-3918928D01*
X17870649Y-4395119D02*
X17870649Y-3395119D01*
X18537315Y-3395119D02*
X18727791Y-3395119D01*
X18727791Y-3395119D02*
X18823029Y-3442738D01*
X18823029Y-3442738D02*
X18918267Y-3537976D01*
X18918267Y-3537976D02*
X18965886Y-3728452D01*
X18965886Y-3728452D02*
X18965886Y-4061785D01*
X18965886Y-4061785D02*
X18918267Y-4252261D01*
X18918267Y-4252261D02*
X18823029Y-4347500D01*
X18823029Y-4347500D02*
X18727791Y-4395119D01*
X18727791Y-4395119D02*
X18537315Y-4395119D01*
X18537315Y-4395119D02*
X18442077Y-4347500D01*
X18442077Y-4347500D02*
X18346839Y-4252261D01*
X18346839Y-4252261D02*
X18299220Y-4061785D01*
X18299220Y-4061785D02*
X18299220Y-3728452D01*
X18299220Y-3728452D02*
X18346839Y-3537976D01*
X18346839Y-3537976D02*
X18442077Y-3442738D01*
X18442077Y-3442738D02*
X18537315Y-3395119D01*
X19918267Y-4395119D02*
X19346839Y-4395119D01*
X19632553Y-4395119D02*
X19632553Y-3395119D01*
X19632553Y-3395119D02*
X19537315Y-3537976D01*
X19537315Y-3537976D02*
X19442077Y-3633214D01*
X19442077Y-3633214D02*
X19346839Y-3680833D01*
X20775410Y-3395119D02*
X20584934Y-3395119D01*
X20584934Y-3395119D02*
X20489696Y-3442738D01*
X20489696Y-3442738D02*
X20442077Y-3490357D01*
X20442077Y-3490357D02*
X20346839Y-3633214D01*
X20346839Y-3633214D02*
X20299220Y-3823690D01*
X20299220Y-3823690D02*
X20299220Y-4204642D01*
X20299220Y-4204642D02*
X20346839Y-4299880D01*
X20346839Y-4299880D02*
X20394458Y-4347500D01*
X20394458Y-4347500D02*
X20489696Y-4395119D01*
X20489696Y-4395119D02*
X20680172Y-4395119D01*
X20680172Y-4395119D02*
X20775410Y-4347500D01*
X20775410Y-4347500D02*
X20823029Y-4299880D01*
X20823029Y-4299880D02*
X20870648Y-4204642D01*
X20870648Y-4204642D02*
X20870648Y-3966547D01*
X20870648Y-3966547D02*
X20823029Y-3871309D01*
X20823029Y-3871309D02*
X20775410Y-3823690D01*
X20775410Y-3823690D02*
X20680172Y-3776071D01*
X20680172Y-3776071D02*
X20489696Y-3776071D01*
X20489696Y-3776071D02*
X20394458Y-3823690D01*
X20394458Y-3823690D02*
X20346839Y-3871309D01*
X20346839Y-3871309D02*
X20299220Y-3966547D01*
X21156363Y-4014166D02*
X21203982Y-3966547D01*
X21203982Y-3966547D02*
X21299220Y-3918928D01*
X21299220Y-3918928D02*
X21489696Y-4014166D01*
X21489696Y-4014166D02*
X21584934Y-3966547D01*
X21584934Y-3966547D02*
X21632553Y-3918928D01*
X22727791Y-3347500D02*
X21870649Y-4633214D01*
X23061125Y-3395119D02*
X23061125Y-4204642D01*
X23061125Y-4204642D02*
X23108744Y-4299880D01*
X23108744Y-4299880D02*
X23156363Y-4347500D01*
X23156363Y-4347500D02*
X23251601Y-4395119D01*
X23251601Y-4395119D02*
X23442077Y-4395119D01*
X23442077Y-4395119D02*
X23537315Y-4347500D01*
X23537315Y-4347500D02*
X23584934Y-4299880D01*
X23584934Y-4299880D02*
X23632553Y-4204642D01*
X23632553Y-4204642D02*
X23632553Y-3395119D01*
X24299220Y-3395119D02*
X24394458Y-3395119D01*
X24394458Y-3395119D02*
X24489696Y-3442738D01*
X24489696Y-3442738D02*
X24537315Y-3490357D01*
X24537315Y-3490357D02*
X24584934Y-3585595D01*
X24584934Y-3585595D02*
X24632553Y-3776071D01*
X24632553Y-3776071D02*
X24632553Y-4014166D01*
X24632553Y-4014166D02*
X24584934Y-4204642D01*
X24584934Y-4204642D02*
X24537315Y-4299880D01*
X24537315Y-4299880D02*
X24489696Y-4347500D01*
X24489696Y-4347500D02*
X24394458Y-4395119D01*
X24394458Y-4395119D02*
X24299220Y-4395119D01*
X24299220Y-4395119D02*
X24203982Y-4347500D01*
X24203982Y-4347500D02*
X24156363Y-4299880D01*
X24156363Y-4299880D02*
X24108744Y-4204642D01*
X24108744Y-4204642D02*
X24061125Y-4014166D01*
X24061125Y-4014166D02*
X24061125Y-3776071D01*
X24061125Y-3776071D02*
X24108744Y-3585595D01*
X24108744Y-3585595D02*
X24156363Y-3490357D01*
X24156363Y-3490357D02*
X24203982Y-3442738D01*
X24203982Y-3442738D02*
X24299220Y-3395119D01*
X24918268Y-3395119D02*
X25489696Y-3395119D01*
X25203982Y-4395119D02*
X25203982Y-3395119D01*
X25727792Y-3395119D02*
X26394458Y-4395119D01*
X26394458Y-3395119D02*
X25727792Y-4395119D01*
X26775411Y-4395119D02*
X26775411Y-3395119D01*
X26775411Y-3395119D02*
X27013506Y-3395119D01*
X27013506Y-3395119D02*
X27156363Y-3442738D01*
X27156363Y-3442738D02*
X27251601Y-3537976D01*
X27251601Y-3537976D02*
X27299220Y-3633214D01*
X27299220Y-3633214D02*
X27346839Y-3823690D01*
X27346839Y-3823690D02*
X27346839Y-3966547D01*
X27346839Y-3966547D02*
X27299220Y-4157023D01*
X27299220Y-4157023D02*
X27251601Y-4252261D01*
X27251601Y-4252261D02*
X27156363Y-4347500D01*
X27156363Y-4347500D02*
X27013506Y-4395119D01*
X27013506Y-4395119D02*
X26775411Y-4395119D01*
X16531905Y-121494819D02*
X16531905Y-120494819D01*
X16531905Y-120494819D02*
X16770000Y-120494819D01*
X16770000Y-120494819D02*
X16912857Y-120542438D01*
X16912857Y-120542438D02*
X17008095Y-120637676D01*
X17008095Y-120637676D02*
X17055714Y-120732914D01*
X17055714Y-120732914D02*
X17103333Y-120923390D01*
X17103333Y-120923390D02*
X17103333Y-121066247D01*
X17103333Y-121066247D02*
X17055714Y-121256723D01*
X17055714Y-121256723D02*
X17008095Y-121351961D01*
X17008095Y-121351961D02*
X16912857Y-121447200D01*
X16912857Y-121447200D02*
X16770000Y-121494819D01*
X16770000Y-121494819D02*
X16531905Y-121494819D01*
X17960476Y-120494819D02*
X17770000Y-120494819D01*
X17770000Y-120494819D02*
X17674762Y-120542438D01*
X17674762Y-120542438D02*
X17627143Y-120590057D01*
X17627143Y-120590057D02*
X17531905Y-120732914D01*
X17531905Y-120732914D02*
X17484286Y-120923390D01*
X17484286Y-120923390D02*
X17484286Y-121304342D01*
X17484286Y-121304342D02*
X17531905Y-121399580D01*
X17531905Y-121399580D02*
X17579524Y-121447200D01*
X17579524Y-121447200D02*
X17674762Y-121494819D01*
X17674762Y-121494819D02*
X17865238Y-121494819D01*
X17865238Y-121494819D02*
X17960476Y-121447200D01*
X17960476Y-121447200D02*
X18008095Y-121399580D01*
X18008095Y-121399580D02*
X18055714Y-121304342D01*
X18055714Y-121304342D02*
X18055714Y-121066247D01*
X18055714Y-121066247D02*
X18008095Y-120971009D01*
X18008095Y-120971009D02*
X17960476Y-120923390D01*
X17960476Y-120923390D02*
X17865238Y-120875771D01*
X17865238Y-120875771D02*
X17674762Y-120875771D01*
X17674762Y-120875771D02*
X17579524Y-120923390D01*
X17579524Y-120923390D02*
X17531905Y-120971009D01*
X17531905Y-120971009D02*
X17484286Y-121066247D01*
X9824819Y-65856666D02*
X9348628Y-66189999D01*
X9824819Y-66428094D02*
X8824819Y-66428094D01*
X8824819Y-66428094D02*
X8824819Y-66047142D01*
X8824819Y-66047142D02*
X8872438Y-65951904D01*
X8872438Y-65951904D02*
X8920057Y-65904285D01*
X8920057Y-65904285D02*
X9015295Y-65856666D01*
X9015295Y-65856666D02*
X9158152Y-65856666D01*
X9158152Y-65856666D02*
X9253390Y-65904285D01*
X9253390Y-65904285D02*
X9301009Y-65951904D01*
X9301009Y-65951904D02*
X9348628Y-66047142D01*
X9348628Y-66047142D02*
X9348628Y-66428094D01*
X8824819Y-65523332D02*
X8824819Y-64904285D01*
X8824819Y-64904285D02*
X9205771Y-65237618D01*
X9205771Y-65237618D02*
X9205771Y-65094761D01*
X9205771Y-65094761D02*
X9253390Y-64999523D01*
X9253390Y-64999523D02*
X9301009Y-64951904D01*
X9301009Y-64951904D02*
X9396247Y-64904285D01*
X9396247Y-64904285D02*
X9634342Y-64904285D01*
X9634342Y-64904285D02*
X9729580Y-64951904D01*
X9729580Y-64951904D02*
X9777200Y-64999523D01*
X9777200Y-64999523D02*
X9824819Y-65094761D01*
X9824819Y-65094761D02*
X9824819Y-65380475D01*
X9824819Y-65380475D02*
X9777200Y-65475713D01*
X9777200Y-65475713D02*
X9729580Y-65523332D01*
X19824819Y-40856666D02*
X19348628Y-41189999D01*
X19824819Y-41428094D02*
X18824819Y-41428094D01*
X18824819Y-41428094D02*
X18824819Y-41047142D01*
X18824819Y-41047142D02*
X18872438Y-40951904D01*
X18872438Y-40951904D02*
X18920057Y-40904285D01*
X18920057Y-40904285D02*
X19015295Y-40856666D01*
X19015295Y-40856666D02*
X19158152Y-40856666D01*
X19158152Y-40856666D02*
X19253390Y-40904285D01*
X19253390Y-40904285D02*
X19301009Y-40951904D01*
X19301009Y-40951904D02*
X19348628Y-41047142D01*
X19348628Y-41047142D02*
X19348628Y-41428094D01*
X18920057Y-40475713D02*
X18872438Y-40428094D01*
X18872438Y-40428094D02*
X18824819Y-40332856D01*
X18824819Y-40332856D02*
X18824819Y-40094761D01*
X18824819Y-40094761D02*
X18872438Y-39999523D01*
X18872438Y-39999523D02*
X18920057Y-39951904D01*
X18920057Y-39951904D02*
X19015295Y-39904285D01*
X19015295Y-39904285D02*
X19110533Y-39904285D01*
X19110533Y-39904285D02*
X19253390Y-39951904D01*
X19253390Y-39951904D02*
X19824819Y-40523332D01*
X19824819Y-40523332D02*
X19824819Y-39904285D01*
X29074819Y-65083333D02*
X29789104Y-65083333D01*
X29789104Y-65083333D02*
X29931961Y-65130952D01*
X29931961Y-65130952D02*
X30027200Y-65226190D01*
X30027200Y-65226190D02*
X30074819Y-65369047D01*
X30074819Y-65369047D02*
X30074819Y-65464285D01*
X30074819Y-64083333D02*
X30074819Y-64654761D01*
X30074819Y-64369047D02*
X29074819Y-64369047D01*
X29074819Y-64369047D02*
X29217676Y-64464285D01*
X29217676Y-64464285D02*
X29312914Y-64559523D01*
X29312914Y-64559523D02*
X29360533Y-64654761D01*
X9824819Y-89476666D02*
X9348628Y-89809999D01*
X9824819Y-90048094D02*
X8824819Y-90048094D01*
X8824819Y-90048094D02*
X8824819Y-89667142D01*
X8824819Y-89667142D02*
X8872438Y-89571904D01*
X8872438Y-89571904D02*
X8920057Y-89524285D01*
X8920057Y-89524285D02*
X9015295Y-89476666D01*
X9015295Y-89476666D02*
X9158152Y-89476666D01*
X9158152Y-89476666D02*
X9253390Y-89524285D01*
X9253390Y-89524285D02*
X9301009Y-89571904D01*
X9301009Y-89571904D02*
X9348628Y-89667142D01*
X9348628Y-89667142D02*
X9348628Y-90048094D01*
X9158152Y-88619523D02*
X9824819Y-88619523D01*
X8777200Y-88857618D02*
X9491485Y-89095713D01*
X9491485Y-89095713D02*
X9491485Y-88476666D01*
X9824819Y-138976666D02*
X9348628Y-139309999D01*
X9824819Y-139548094D02*
X8824819Y-139548094D01*
X8824819Y-139548094D02*
X8824819Y-139167142D01*
X8824819Y-139167142D02*
X8872438Y-139071904D01*
X8872438Y-139071904D02*
X8920057Y-139024285D01*
X8920057Y-139024285D02*
X9015295Y-138976666D01*
X9015295Y-138976666D02*
X9158152Y-138976666D01*
X9158152Y-138976666D02*
X9253390Y-139024285D01*
X9253390Y-139024285D02*
X9301009Y-139071904D01*
X9301009Y-139071904D02*
X9348628Y-139167142D01*
X9348628Y-139167142D02*
X9348628Y-139548094D01*
X8824819Y-138119523D02*
X8824819Y-138309999D01*
X8824819Y-138309999D02*
X8872438Y-138405237D01*
X8872438Y-138405237D02*
X8920057Y-138452856D01*
X8920057Y-138452856D02*
X9062914Y-138548094D01*
X9062914Y-138548094D02*
X9253390Y-138595713D01*
X9253390Y-138595713D02*
X9634342Y-138595713D01*
X9634342Y-138595713D02*
X9729580Y-138548094D01*
X9729580Y-138548094D02*
X9777200Y-138500475D01*
X9777200Y-138500475D02*
X9824819Y-138405237D01*
X9824819Y-138405237D02*
X9824819Y-138214761D01*
X9824819Y-138214761D02*
X9777200Y-138119523D01*
X9777200Y-138119523D02*
X9729580Y-138071904D01*
X9729580Y-138071904D02*
X9634342Y-138024285D01*
X9634342Y-138024285D02*
X9396247Y-138024285D01*
X9396247Y-138024285D02*
X9301009Y-138071904D01*
X9301009Y-138071904D02*
X9253390Y-138119523D01*
X9253390Y-138119523D02*
X9205771Y-138214761D01*
X9205771Y-138214761D02*
X9205771Y-138405237D01*
X9205771Y-138405237D02*
X9253390Y-138500475D01*
X9253390Y-138500475D02*
X9301009Y-138548094D01*
X9301009Y-138548094D02*
X9396247Y-138595713D01*
X9824819Y-114476666D02*
X9348628Y-114809999D01*
X9824819Y-115048094D02*
X8824819Y-115048094D01*
X8824819Y-115048094D02*
X8824819Y-114667142D01*
X8824819Y-114667142D02*
X8872438Y-114571904D01*
X8872438Y-114571904D02*
X8920057Y-114524285D01*
X8920057Y-114524285D02*
X9015295Y-114476666D01*
X9015295Y-114476666D02*
X9158152Y-114476666D01*
X9158152Y-114476666D02*
X9253390Y-114524285D01*
X9253390Y-114524285D02*
X9301009Y-114571904D01*
X9301009Y-114571904D02*
X9348628Y-114667142D01*
X9348628Y-114667142D02*
X9348628Y-115048094D01*
X8824819Y-113571904D02*
X8824819Y-114048094D01*
X8824819Y-114048094D02*
X9301009Y-114095713D01*
X9301009Y-114095713D02*
X9253390Y-114048094D01*
X9253390Y-114048094D02*
X9205771Y-113952856D01*
X9205771Y-113952856D02*
X9205771Y-113714761D01*
X9205771Y-113714761D02*
X9253390Y-113619523D01*
X9253390Y-113619523D02*
X9301009Y-113571904D01*
X9301009Y-113571904D02*
X9396247Y-113524285D01*
X9396247Y-113524285D02*
X9634342Y-113524285D01*
X9634342Y-113524285D02*
X9729580Y-113571904D01*
X9729580Y-113571904D02*
X9777200Y-113619523D01*
X9777200Y-113619523D02*
X9824819Y-113714761D01*
X9824819Y-113714761D02*
X9824819Y-113952856D01*
X9824819Y-113952856D02*
X9777200Y-114048094D01*
X9777200Y-114048094D02*
X9729580Y-114095713D01*
X16531905Y-49494819D02*
X16531905Y-48494819D01*
X16531905Y-48494819D02*
X16770000Y-48494819D01*
X16770000Y-48494819D02*
X16912857Y-48542438D01*
X16912857Y-48542438D02*
X17008095Y-48637676D01*
X17008095Y-48637676D02*
X17055714Y-48732914D01*
X17055714Y-48732914D02*
X17103333Y-48923390D01*
X17103333Y-48923390D02*
X17103333Y-49066247D01*
X17103333Y-49066247D02*
X17055714Y-49256723D01*
X17055714Y-49256723D02*
X17008095Y-49351961D01*
X17008095Y-49351961D02*
X16912857Y-49447200D01*
X16912857Y-49447200D02*
X16770000Y-49494819D01*
X16770000Y-49494819D02*
X16531905Y-49494819D01*
X17436667Y-48494819D02*
X18055714Y-48494819D01*
X18055714Y-48494819D02*
X17722381Y-48875771D01*
X17722381Y-48875771D02*
X17865238Y-48875771D01*
X17865238Y-48875771D02*
X17960476Y-48923390D01*
X17960476Y-48923390D02*
X18008095Y-48971009D01*
X18008095Y-48971009D02*
X18055714Y-49066247D01*
X18055714Y-49066247D02*
X18055714Y-49304342D01*
X18055714Y-49304342D02*
X18008095Y-49399580D01*
X18008095Y-49399580D02*
X17960476Y-49447200D01*
X17960476Y-49447200D02*
X17865238Y-49494819D01*
X17865238Y-49494819D02*
X17579524Y-49494819D01*
X17579524Y-49494819D02*
X17484286Y-49447200D01*
X17484286Y-49447200D02*
X17436667Y-49399580D01*
X16531905Y-1494819D02*
X16531905Y-494819D01*
X16531905Y-494819D02*
X16770000Y-494819D01*
X16770000Y-494819D02*
X16912857Y-542438D01*
X16912857Y-542438D02*
X17008095Y-637676D01*
X17008095Y-637676D02*
X17055714Y-732914D01*
X17055714Y-732914D02*
X17103333Y-923390D01*
X17103333Y-923390D02*
X17103333Y-1066247D01*
X17103333Y-1066247D02*
X17055714Y-1256723D01*
X17055714Y-1256723D02*
X17008095Y-1351961D01*
X17008095Y-1351961D02*
X16912857Y-1447200D01*
X16912857Y-1447200D02*
X16770000Y-1494819D01*
X16770000Y-1494819D02*
X16531905Y-1494819D01*
X18055714Y-1494819D02*
X17484286Y-1494819D01*
X17770000Y-1494819D02*
X17770000Y-494819D01*
X17770000Y-494819D02*
X17674762Y-637676D01*
X17674762Y-637676D02*
X17579524Y-732914D01*
X17579524Y-732914D02*
X17484286Y-780533D01*
X15084819Y-16356666D02*
X14608628Y-16689999D01*
X15084819Y-16928094D02*
X14084819Y-16928094D01*
X14084819Y-16928094D02*
X14084819Y-16547142D01*
X14084819Y-16547142D02*
X14132438Y-16451904D01*
X14132438Y-16451904D02*
X14180057Y-16404285D01*
X14180057Y-16404285D02*
X14275295Y-16356666D01*
X14275295Y-16356666D02*
X14418152Y-16356666D01*
X14418152Y-16356666D02*
X14513390Y-16404285D01*
X14513390Y-16404285D02*
X14561009Y-16451904D01*
X14561009Y-16451904D02*
X14608628Y-16547142D01*
X14608628Y-16547142D02*
X14608628Y-16928094D01*
X15084819Y-15404285D02*
X15084819Y-15975713D01*
X15084819Y-15689999D02*
X14084819Y-15689999D01*
X14084819Y-15689999D02*
X14227676Y-15785237D01*
X14227676Y-15785237D02*
X14322914Y-15880475D01*
X14322914Y-15880475D02*
X14370533Y-15975713D01*
X16531905Y-73494819D02*
X16531905Y-72494819D01*
X16531905Y-72494819D02*
X16770000Y-72494819D01*
X16770000Y-72494819D02*
X16912857Y-72542438D01*
X16912857Y-72542438D02*
X17008095Y-72637676D01*
X17008095Y-72637676D02*
X17055714Y-72732914D01*
X17055714Y-72732914D02*
X17103333Y-72923390D01*
X17103333Y-72923390D02*
X17103333Y-73066247D01*
X17103333Y-73066247D02*
X17055714Y-73256723D01*
X17055714Y-73256723D02*
X17008095Y-73351961D01*
X17008095Y-73351961D02*
X16912857Y-73447200D01*
X16912857Y-73447200D02*
X16770000Y-73494819D01*
X16770000Y-73494819D02*
X16531905Y-73494819D01*
X17960476Y-72828152D02*
X17960476Y-73494819D01*
X17722381Y-72447200D02*
X17484286Y-73161485D01*
X17484286Y-73161485D02*
X18103333Y-73161485D01*
X16531905Y-97494819D02*
X16531905Y-96494819D01*
X16531905Y-96494819D02*
X16770000Y-96494819D01*
X16770000Y-96494819D02*
X16912857Y-96542438D01*
X16912857Y-96542438D02*
X17008095Y-96637676D01*
X17008095Y-96637676D02*
X17055714Y-96732914D01*
X17055714Y-96732914D02*
X17103333Y-96923390D01*
X17103333Y-96923390D02*
X17103333Y-97066247D01*
X17103333Y-97066247D02*
X17055714Y-97256723D01*
X17055714Y-97256723D02*
X17008095Y-97351961D01*
X17008095Y-97351961D02*
X16912857Y-97447200D01*
X16912857Y-97447200D02*
X16770000Y-97494819D01*
X16770000Y-97494819D02*
X16531905Y-97494819D01*
X18008095Y-96494819D02*
X17531905Y-96494819D01*
X17531905Y-96494819D02*
X17484286Y-96971009D01*
X17484286Y-96971009D02*
X17531905Y-96923390D01*
X17531905Y-96923390D02*
X17627143Y-96875771D01*
X17627143Y-96875771D02*
X17865238Y-96875771D01*
X17865238Y-96875771D02*
X17960476Y-96923390D01*
X17960476Y-96923390D02*
X18008095Y-96971009D01*
X18008095Y-96971009D02*
X18055714Y-97066247D01*
X18055714Y-97066247D02*
X18055714Y-97304342D01*
X18055714Y-97304342D02*
X18008095Y-97399580D01*
X18008095Y-97399580D02*
X17960476Y-97447200D01*
X17960476Y-97447200D02*
X17865238Y-97494819D01*
X17865238Y-97494819D02*
X17627143Y-97494819D01*
X17627143Y-97494819D02*
X17531905Y-97447200D01*
X17531905Y-97447200D02*
X17484286Y-97399580D01*
X30824819Y-137476666D02*
X30348628Y-137809999D01*
X30824819Y-138048094D02*
X29824819Y-138048094D01*
X29824819Y-138048094D02*
X29824819Y-137667142D01*
X29824819Y-137667142D02*
X29872438Y-137571904D01*
X29872438Y-137571904D02*
X29920057Y-137524285D01*
X29920057Y-137524285D02*
X30015295Y-137476666D01*
X30015295Y-137476666D02*
X30158152Y-137476666D01*
X30158152Y-137476666D02*
X30253390Y-137524285D01*
X30253390Y-137524285D02*
X30301009Y-137571904D01*
X30301009Y-137571904D02*
X30348628Y-137667142D01*
X30348628Y-137667142D02*
X30348628Y-138048094D01*
X29824819Y-137143332D02*
X29824819Y-136476666D01*
X29824819Y-136476666D02*
X30824819Y-136905237D01*
X16531905Y-25494819D02*
X16531905Y-24494819D01*
X16531905Y-24494819D02*
X16770000Y-24494819D01*
X16770000Y-24494819D02*
X16912857Y-24542438D01*
X16912857Y-24542438D02*
X17008095Y-24637676D01*
X17008095Y-24637676D02*
X17055714Y-24732914D01*
X17055714Y-24732914D02*
X17103333Y-24923390D01*
X17103333Y-24923390D02*
X17103333Y-25066247D01*
X17103333Y-25066247D02*
X17055714Y-25256723D01*
X17055714Y-25256723D02*
X17008095Y-25351961D01*
X17008095Y-25351961D02*
X16912857Y-25447200D01*
X16912857Y-25447200D02*
X16770000Y-25494819D01*
X16770000Y-25494819D02*
X16531905Y-25494819D01*
X17484286Y-24590057D02*
X17531905Y-24542438D01*
X17531905Y-24542438D02*
X17627143Y-24494819D01*
X17627143Y-24494819D02*
X17865238Y-24494819D01*
X17865238Y-24494819D02*
X17960476Y-24542438D01*
X17960476Y-24542438D02*
X18008095Y-24590057D01*
X18008095Y-24590057D02*
X18055714Y-24685295D01*
X18055714Y-24685295D02*
X18055714Y-24780533D01*
X18055714Y-24780533D02*
X18008095Y-24923390D01*
X18008095Y-24923390D02*
X17436667Y-25494819D01*
X17436667Y-25494819D02*
X18055714Y-25494819D01*
X16531905Y-145494819D02*
X16531905Y-144494819D01*
X16531905Y-144494819D02*
X16770000Y-144494819D01*
X16770000Y-144494819D02*
X16912857Y-144542438D01*
X16912857Y-144542438D02*
X17008095Y-144637676D01*
X17008095Y-144637676D02*
X17055714Y-144732914D01*
X17055714Y-144732914D02*
X17103333Y-144923390D01*
X17103333Y-144923390D02*
X17103333Y-145066247D01*
X17103333Y-145066247D02*
X17055714Y-145256723D01*
X17055714Y-145256723D02*
X17008095Y-145351961D01*
X17008095Y-145351961D02*
X16912857Y-145447200D01*
X16912857Y-145447200D02*
X16770000Y-145494819D01*
X16770000Y-145494819D02*
X16531905Y-145494819D01*
X17436667Y-144494819D02*
X18103333Y-144494819D01*
X18103333Y-144494819D02*
X17674762Y-145494819D01*
D11*
%TO.C,U1*%
X4800000Y174700D02*
X4800000Y-48085300D01*
X4800000Y-48085300D02*
X30200000Y-48085300D01*
X10897720Y5565020D02*
X24097720Y5565020D01*
X10897720Y195020D02*
X10897720Y5565020D01*
X24097720Y5565020D02*
X24097720Y195020D01*
X30200000Y174700D02*
X4800000Y174700D01*
X30200000Y-48085300D02*
X30200000Y174700D01*
X5946200Y-41275300D02*
X14582200Y-41275300D01*
X14582200Y-48565100D01*
X5946200Y-48565100D01*
X5946200Y-41275300D01*
X20346200Y-41275300D02*
X28982200Y-41275300D01*
X28982200Y-48565100D01*
X20346200Y-48565100D01*
X20346200Y-41275300D01*
%TO.C,D6*%
X19770000Y-125000000D02*
G75*
G02*
X14770000Y-125000000I-2500000J0D01*
G01*
X14770000Y-125000000D02*
G75*
G02*
X19770000Y-125000000I2500000J0D01*
G01*
X20260000Y-125000000D02*
G75*
G02*
X14710000Y-126544830I-2990000J0D01*
G01*
X14710000Y-123455170D02*
G75*
G02*
X20260000Y-125000000I2560000J-1544830D01*
G01*
X14710000Y-123455000D02*
X14710000Y-126545000D01*
%TO.C,R3*%
X8370000Y-62420000D02*
X8370000Y-68960000D01*
X8040000Y-62420000D02*
X8370000Y-62420000D01*
X5960000Y-62420000D02*
X5630000Y-62420000D01*
X5630000Y-62420000D02*
X5630000Y-68960000D01*
X8370000Y-68960000D02*
X8040000Y-68960000D01*
X5630000Y-68960000D02*
X5960000Y-68960000D01*
%TO.C,R2*%
X18370000Y-43960000D02*
X18040000Y-43960000D01*
X18370000Y-37420000D02*
X18370000Y-43960000D01*
X18040000Y-37420000D02*
X18370000Y-37420000D01*
X15960000Y-37420000D02*
X15630000Y-37420000D01*
X15630000Y-43960000D02*
X15960000Y-43960000D01*
X15630000Y-37420000D02*
X15630000Y-43960000D01*
%TO.C,J1*%
X20580000Y-62500000D02*
X19970000Y-62940000D01*
X19970000Y-62060000D01*
X20580000Y-62500000D01*
G36*
X20580000Y-62500000D02*
G01*
X19970000Y-62940000D01*
X19970000Y-62060000D01*
X20580000Y-62500000D01*
G37*
X20580000Y-70120000D02*
X20580000Y-62800000D01*
X28620000Y-70120000D02*
X20580000Y-70120000D01*
X24000000Y-69312000D02*
X24000000Y-70120000D01*
X25000000Y-69312000D02*
X25000000Y-70120000D01*
X22700000Y-68043000D02*
X22700000Y-70120000D01*
X22700000Y-64380000D02*
X22700000Y-66957000D01*
X24000000Y-64380000D02*
X24000000Y-65688000D01*
X25000000Y-64380000D02*
X25000000Y-65688000D01*
X20580000Y-62200000D02*
X20580000Y-59380000D01*
X20580000Y-59380000D02*
X28620000Y-59380000D01*
X22700000Y-59380000D02*
X22700000Y-60620000D01*
X24000000Y-59380000D02*
X24000000Y-60620000D01*
X25000000Y-59380000D02*
X25000000Y-60620000D01*
X28620000Y-59380000D02*
X28620000Y-70120000D01*
%TO.C,R4*%
X5630000Y-92580000D02*
X5960000Y-92580000D01*
X8370000Y-92580000D02*
X8040000Y-92580000D01*
X5630000Y-86040000D02*
X5630000Y-92580000D01*
X5960000Y-86040000D02*
X5630000Y-86040000D01*
X8040000Y-86040000D02*
X8370000Y-86040000D01*
X8370000Y-86040000D02*
X8370000Y-92580000D01*
%TO.C,R6*%
X8370000Y-135540000D02*
X8370000Y-142080000D01*
X8040000Y-135540000D02*
X8370000Y-135540000D01*
X5960000Y-135540000D02*
X5630000Y-135540000D01*
X5630000Y-135540000D02*
X5630000Y-142080000D01*
X8370000Y-142080000D02*
X8040000Y-142080000D01*
X5630000Y-142080000D02*
X5960000Y-142080000D01*
%TO.C,R5*%
X8370000Y-111040000D02*
X8370000Y-117580000D01*
X8040000Y-111040000D02*
X8370000Y-111040000D01*
X5960000Y-111040000D02*
X5630000Y-111040000D01*
X5630000Y-111040000D02*
X5630000Y-117580000D01*
X8370000Y-117580000D02*
X8040000Y-117580000D01*
X5630000Y-117580000D02*
X5960000Y-117580000D01*
%TO.C,D3*%
X14710000Y-51455000D02*
X14710000Y-54545000D01*
X14710000Y-51455170D02*
G75*
G02*
X20260000Y-53000000I2560000J-1544830D01*
G01*
X20260000Y-53000000D02*
G75*
G02*
X14710000Y-54544830I-2990000J0D01*
G01*
X19770000Y-53000000D02*
G75*
G02*
X14770000Y-53000000I-2500000J0D01*
G01*
X14770000Y-53000000D02*
G75*
G02*
X19770000Y-53000000I2500000J0D01*
G01*
%TO.C,D1*%
X14710000Y-3455000D02*
X14710000Y-6545000D01*
X14710000Y-3455170D02*
G75*
G02*
X20260000Y-5000000I2560000J-1544830D01*
G01*
X20260000Y-5000000D02*
G75*
G02*
X14710000Y-6544830I-2990000J0D01*
G01*
X19770000Y-5000000D02*
G75*
G02*
X14770000Y-5000000I-2500000J0D01*
G01*
X14770000Y-5000000D02*
G75*
G02*
X19770000Y-5000000I2500000J0D01*
G01*
%TO.C,R1*%
X15630000Y-12920000D02*
X15960000Y-12920000D01*
X15630000Y-19460000D02*
X15630000Y-12920000D01*
X15960000Y-19460000D02*
X15630000Y-19460000D01*
X18040000Y-19460000D02*
X18370000Y-19460000D01*
X18370000Y-12920000D02*
X18040000Y-12920000D01*
X18370000Y-19460000D02*
X18370000Y-12920000D01*
%TO.C,D4*%
X14710000Y-75455000D02*
X14710000Y-78545000D01*
X14710000Y-75455170D02*
G75*
G02*
X20260000Y-77000000I2560000J-1544830D01*
G01*
X20260000Y-77000000D02*
G75*
G02*
X14710000Y-78544830I-2990000J0D01*
G01*
X19770000Y-77000000D02*
G75*
G02*
X14770000Y-77000000I-2500000J0D01*
G01*
X14770000Y-77000000D02*
G75*
G02*
X19770000Y-77000000I2500000J0D01*
G01*
%TO.C,D5*%
X14710000Y-99455000D02*
X14710000Y-102545000D01*
X14710000Y-99455170D02*
G75*
G02*
X20260000Y-101000000I2560000J-1544830D01*
G01*
X20260000Y-101000000D02*
G75*
G02*
X14710000Y-102544830I-2990000J0D01*
G01*
X19770000Y-101000000D02*
G75*
G02*
X14770000Y-101000000I-2500000J0D01*
G01*
X14770000Y-101000000D02*
G75*
G02*
X19770000Y-101000000I2500000J0D01*
G01*
%TO.C,R7*%
X29370000Y-134040000D02*
X29370000Y-140580000D01*
X29040000Y-134040000D02*
X29370000Y-134040000D01*
X26960000Y-134040000D02*
X26630000Y-134040000D01*
X26630000Y-134040000D02*
X26630000Y-140580000D01*
X29370000Y-140580000D02*
X29040000Y-140580000D01*
X26630000Y-140580000D02*
X26960000Y-140580000D01*
%TO.C,D2*%
X14710000Y-27455000D02*
X14710000Y-30545000D01*
X14710000Y-27455170D02*
G75*
G02*
X20260000Y-29000000I2560000J-1544830D01*
G01*
X20260000Y-29000000D02*
G75*
G02*
X14710000Y-30544830I-2990000J0D01*
G01*
X19770000Y-29000000D02*
G75*
G02*
X14770000Y-29000000I-2500000J0D01*
G01*
X14770000Y-29000000D02*
G75*
G02*
X19770000Y-29000000I2500000J0D01*
G01*
%TO.C,D7*%
X14710000Y-147455000D02*
X14710000Y-150545000D01*
X14710000Y-147455170D02*
G75*
G02*
X20260000Y-149000000I2560000J-1544830D01*
G01*
X20260000Y-149000000D02*
G75*
G02*
X14710000Y-150544830I-2990000J0D01*
G01*
X19770000Y-149000000D02*
G75*
G02*
X14770000Y-149000000I-2500000J0D01*
G01*
X14770000Y-149000000D02*
G75*
G02*
X19770000Y-149000000I2500000J0D01*
G01*
%TD*%
M02*
